<?xml version="1.0" encoding="iso-8859-1"?>
<!-- Generator: Adobe Illustrator 19.0.0, SVG Export Plug-In . SVG Version: 6.00 Build 0)  -->
<svg xmlns="http://www.w3.org/2000/svg" xmlns:xlink="http://www.w3.org/1999/xlink" version="1.1" id="Capa_1" x="0px" y="0px" viewBox="0 0 512 512" style="enable-background:new 0 0 512 512;" xml:space="preserve" width="512px" height="512px">
<g>
	<g>
		<path d="M460.098,72.212v-24.07H412.96v24.07h-8.023v67.211l24.07,16.047v188.538c0,47.305-21.339,89.66-55.179,117.737    c14.052-19.633,22.458-43.665,22.458-69.596c0-66.087-53.702-119.851-119.789-119.851s-119.819,53.765-119.819,119.851    c0,25.931,8.046,49.962,22.098,69.596c-33.841-28.077-55.665-70.432-55.665-117.737V239.702h64.188v-88.259h48.141v-16.047h56.165    V96.282H235.44v-9.026h56.165V48.141H235.44V32.094h-48.141V0H43.879v239.702h64.188v104.306    c0,91.874,74.39,166.747,165.981,167.963c0.751,0.019,1.631,0.029,2.387,0.029s1.322-0.01,2.074-0.029    c91.591-1.217,165.542-76.089,165.542-167.963V155.469l24.071-16.047V72.212H460.098z M235.44,63.185h41.12v9.026h-41.12V63.185z     M235.44,111.326h41.12v9.026h-41.12V111.326z M155.205,15.044h17.05v32.094h48.141V136.4h-48.141v88.259h-17.05V15.044z     M58.923,224.658V15.044h81.238v209.614H58.923z M276.56,496.956c-40.094,0-72.713-32.619-72.713-72.713    c0-40.094,32.619-72.713,72.713-72.713c40.094,0,72.713,32.619,72.713,72.713C349.273,464.337,316.655,496.956,276.56,496.956z     M276.56,336.486c-48.39,0-87.757,39.367-87.757,87.757c0,12.419,2.599,24.242,7.272,34.959    c-15.176-18.185-24.322-41.571-24.322-67.053c0-57.79,47.016-104.807,104.807-104.807s104.807,47.017,104.807,104.807    c0,25.483-9.146,48.868-24.322,67.053c4.674-10.717,7.272-22.54,7.272-34.959C364.317,375.853,324.95,336.486,276.56,336.486z     M428.004,63.185h17.05v9.026h-17.05V63.185z M453.077,131.371l-16.549,11.032l-16.548-11.032V87.256h33.097V131.371z" fill="#FFFFFF"/>
	</g>
</g>
<g>
	<g>
		<rect x="75.973" y="111.326" width="15.044" height="16.047" fill="#FFFFFF"/>
	</g>
</g>
<g>
	<g>
		<rect x="75.973" y="159.467" width="15.044" height="16.047" fill="#FFFFFF"/>
	</g>
</g>
<g>
	<g>
		<rect x="75.973" y="63.185" width="15.044" height="16.047" fill="#FFFFFF"/>
	</g>
</g>
<g>
</g>
<g>
</g>
<g>
</g>
<g>
</g>
<g>
</g>
<g>
</g>
<g>
</g>
<g>
</g>
<g>
</g>
<g>
</g>
<g>
</g>
<g>
</g>
<g>
</g>
<g>
</g>
<g>
</g>
</svg>
