<?xml version="1.0" encoding="iso-8859-1"?>
<!-- Generator: Adobe Illustrator 19.0.0, SVG Export Plug-In . SVG Version: 6.00 Build 0)  -->
<svg xmlns="http://www.w3.org/2000/svg" xmlns:xlink="http://www.w3.org/1999/xlink" version="1.1" id="Capa_1" x="0px" y="0px" viewBox="0 0 512 512" style="enable-background:new 0 0 512 512;" xml:space="preserve" width="512px" height="512px">
<g>
	<g>
		<path d="M406.522,316.747c-37.001,0-67.103,30.102-67.103,67.102c0,37,30.102,67.102,67.103,67.102    c37,0,67.102-30.102,67.102-67.102C473.623,346.849,443.522,316.747,406.522,316.747z M406.522,435.743    c-28.615,0-51.896-23.279-51.896-51.895c0-28.615,23.28-51.894,51.896-51.894s51.895,23.279,51.895,51.894    C458.415,412.463,435.137,435.743,406.522,435.743z" fill="#000000"/>
	</g>
</g>
<g>
	<g>
		<path d="M430.756,359.616c-13.363-13.361-35.105-13.362-48.468,0.001c-13.362,13.362-13.362,35.104,0,48.466    c6.566,6.566,15.308,10.051,24.221,10.051c4.337,0,8.717-0.825,12.904-2.524c3.892-1.579,5.767-6.012,4.189-9.904    c-1.579-3.892-6.013-5.767-9.904-4.189c-7.119,2.885-15.225,1.242-20.655-4.188c-7.433-7.433-7.433-19.526,0-26.959    c7.434-7.434,19.527-7.432,26.959,0c5.43,5.43,7.075,13.538,4.187,20.655c-1.579,3.891,0.297,8.326,4.188,9.904    c3.894,1.58,8.327-0.297,9.905-4.188C443.471,383.948,440.517,369.376,430.756,359.616z" fill="#000000"/>
	</g>
</g>
<g>
	<g>
		<path d="M90.223,349.579c-18.897,0-34.271,15.374-34.271,34.271c0,18.896,15.373,34.271,34.271,34.271    c18.897,0,34.271-15.374,34.271-34.271C124.493,364.954,109.12,349.579,90.223,349.579z M90.223,402.912    c-10.511,0-19.063-8.552-19.063-19.063c0-10.511,8.552-19.062,19.063-19.062c10.511,0,19.063,8.552,19.063,19.063    C109.285,394.361,100.733,402.912,90.223,402.912z" fill="#000000"/>
	</g>
</g>
<g>
	<g>
		<path d="M90.223,316.747c-37.001,0-67.103,30.102-67.103,67.102c0,37,30.102,67.102,67.103,67.102    c37,0,67.102-30.102,67.102-67.102C157.325,346.849,127.222,316.747,90.223,316.747z M90.223,435.743    c-28.615,0-51.896-23.279-51.896-51.895c0-28.615,23.28-51.894,51.896-51.894c28.615,0,51.894,23.279,51.894,51.894    C142.117,412.463,118.838,435.743,90.223,435.743z" fill="#000000"/>
	</g>
</g>
<g>
	<g>
		<path d="M460.027,202.562L430.349,84.156c-3.411-13.605-15.588-23.107-29.613-23.107H78.581c-4.2,0-7.604,3.405-7.604,7.604    c0,4.199,3.404,7.604,7.604,7.604h322.154c7.038,0,13.15,4.768,14.86,11.596l6.241,24.9h-87.358c-4.2,0-7.604,3.405-7.604,7.604    v87.844c0,4.199,3.404,7.604,7.604,7.604h117.7c26.734,10.357,44.613,36.347,44.613,65.097v43.23h-31.144    c-4.2,0-7.604,3.405-7.604,7.604c0,4.199,3.404,7.604,7.604,7.604h31.144v36.905h-5.423c-4.2,0-7.604,3.405-7.604,7.604    c0,4.199,3.404,7.604,7.604,7.604h13.027c4.2,0,7.604-3.405,7.604-7.604V280.902C512,246.739,491.278,215.763,460.027,202.562z     M354.859,200.597h-12.776V127.96h12.776V200.597z M370.067,200.597V127.96h55.583l18.207,72.636H370.067z" fill="#000000"/>
	</g>
</g>
<g>
	<g>
		<path d="M321.676,376.245H175.064c-4.2,0-7.604,3.405-7.604,7.604c0,4.199,3.404,7.604,7.604,7.604h146.612    c4.2,0,7.604-3.405,7.604-7.604C329.28,379.65,325.876,376.245,321.676,376.245z" fill="#000000"/>
	</g>
</g>
<g>
	<g>
		<path d="M347.388,324.133H154.423c-4.2,0-7.604,3.405-7.604,7.604s3.404,7.604,7.604,7.604h192.965c4.2,0,7.604-3.405,7.604-7.604    S351.589,324.133,347.388,324.133z" fill="#000000"/>
	</g>
</g>
<g>
	<g>
		<path d="M53.233,61.049H34.068C15.282,61.049,0,76.332,0,95.116v288.732c0,4.199,3.404,7.604,7.604,7.604s7.604-3.405,7.604-7.604    V339.34h15.875c4.2,0,7.604-3.405,7.604-7.604s-3.404-7.604-7.604-7.604H15.208V95.116c0-10.399,8.461-18.86,18.86-18.86h19.165    c4.2,0,7.604-3.405,7.604-7.604C60.837,64.453,57.433,61.049,53.233,61.049z" fill="#000000"/>
	</g>
</g>
<g>
	<g>
		<path d="M465.768,257.475c-13.836,0-25.093,11.257-25.093,25.092s11.257,25.092,25.093,25.092s25.092-11.256,25.092-25.092    C490.86,268.732,479.603,257.475,465.768,257.475z M465.768,292.451c-5.451,0-9.885-4.434-9.885-9.884    c0-5.45,4.435-9.884,9.885-9.884c5.451,0,9.884,4.435,9.884,9.884C475.652,288.017,471.218,292.451,465.768,292.451z" fill="#000000"/>
	</g>
</g>
<g>
	<g>
		<path d="M271.973,169.764l-23.53-4.233c-2.787-6.591-6.374-12.793-10.709-18.514l8.108-22.516    c1.246-3.463-0.165-7.321-3.353-9.161l-38.088-21.994c-3.189-1.84-7.235-1.133-9.61,1.678l-15.44,18.276    c-7.096-0.875-14.299-0.874-21.388,0l-15.44-18.276c-2.376-2.812-6.423-3.519-9.61-1.678l-38.087,21.992    c-3.188,1.84-4.599,5.699-3.353,9.161l8.108,22.516c-4.335,5.721-7.922,11.923-10.709,18.514l-23.53,4.233    c-3.622,0.652-6.258,3.803-6.258,7.483v43.979h0c0,3.68,2.636,6.832,6.258,7.483l23.529,4.234    c2.785,6.588,6.373,12.79,10.71,18.517l-8.108,22.512c-1.246,3.463,0.165,7.321,3.353,9.162l38.087,21.992    c3.188,1.84,7.236,1.135,9.61-1.677l15.44-18.271c7.09,0.873,14.294,0.874,21.39,0l15.44,18.271    c1.488,1.761,3.633,2.697,5.811,2.697c1.298,0,2.608-0.333,3.798-1.019l38.087-21.992c3.188-1.84,4.599-5.699,3.353-9.162    l-8.108-22.512c4.337-5.727,7.925-11.929,10.71-18.517l23.529-4.234c3.622-0.652,6.258-3.803,6.258-7.483v-43.978    C278.231,173.567,275.595,170.415,271.973,169.764z M263.02,214.867l-21.447,3.859c-2.665,0.48-4.875,2.341-5.8,4.886    c-2.853,7.849-7.044,15.095-12.456,21.537c-1.743,2.074-2.251,4.919-1.332,7.468l7.392,20.525l-27.074,15.633l-14.07-16.651    c-1.458-1.727-3.591-2.696-5.807-2.696c-0.437,0-0.876,0.038-1.315,0.115c-8.204,1.439-16.718,1.437-24.909,0    c-2.665-0.466-5.377,0.516-7.121,2.581l-14.07,16.651l-27.074-15.633l7.392-20.525c0.918-2.549,0.41-5.394-1.332-7.468    c-5.412-6.442-9.603-13.688-12.456-21.537c-0.926-2.546-3.135-4.406-5.8-4.886l-21.447-3.859v-31.262h0.001l21.447-3.859    c2.665-0.48,4.875-2.34,5.799-4.885c2.857-7.856,7.048-15.101,12.455-21.532c1.745-2.074,2.253-4.92,1.334-7.47l-7.393-20.531    l27.074-15.633l14.07,16.655c1.746,2.067,4.464,3.049,7.122,2.582c8.192-1.438,16.707-1.439,24.909,0    c2.664,0.465,5.378-0.515,7.122-2.582l14.07-16.655l27.074,15.633l-7.393,20.531c-0.918,2.55-0.41,5.396,1.334,7.47    c5.407,6.431,9.598,13.676,12.455,21.532c0.925,2.545,3.134,4.405,5.799,4.885l21.447,3.859V214.867z" fill="#000000"/>
	</g>
</g>
<g>
	<g>
		<path d="M168.654,149.877c-9.754,0-19.188,2.842-27.279,8.216c-0.097,0.065-0.193,0.132-0.286,0.2    c-13.652,9.201-21.789,24.48-21.789,40.943c0,16.582,8.253,31.96,22.071,41.137c8.09,5.381,17.524,8.224,27.283,8.224    c27.218,0,49.361-22.143,49.361-49.361S195.872,149.877,168.654,149.877z M168.654,233.391c-6.752,0-13.274-1.964-18.864-5.682    c-9.569-6.355-15.282-16.998-15.282-28.47c0-11.474,5.714-22.117,15.285-28.47c0.082-0.055,0.163-0.11,0.243-0.168    c5.534-3.609,11.966-5.514,18.618-5.514c18.831,0,34.153,15.32,34.153,34.152S187.486,233.391,168.654,233.391z" fill="#000000"/>
	</g>
</g>
<g>
</g>
<g>
</g>
<g>
</g>
<g>
</g>
<g>
</g>
<g>
</g>
<g>
</g>
<g>
</g>
<g>
</g>
<g>
</g>
<g>
</g>
<g>
</g>
<g>
</g>
<g>
</g>
<g>
</g>
</svg>
