<svg xmlns="http://www.w3.org/2000/svg" xmlns:xlink="http://www.w3.org/1999/xlink" version="1.1" x="0px" y="0px" viewBox="0 0 58 59" enable-background="new 0 0 58 59" xml:space="preserve"><g>
    <defs>
		<style type="text/css"><![CDATA[
			path {
				fill: #fff;
			}
			polygon {
			    fill: #fff;
			}
			circle {
			    fill: #fff;
			}
			rect {
			    fill: #fff;
			}
		]]></style>
	</defs>
    <path d="M55.15,0H2.85C1.28,0,0,1.28,0,2.85V28v2v26.15C0,57.72,1.28,59,2.85,59h52.31c1.57,0,2.85-1.28,2.85-2.85V30v-2V2.85   C58,1.28,56.72,0,55.15,0z M56,56.15c0,0.47-0.38,0.85-0.85,0.85H2.85C2.38,57,2,56.62,2,56.15V30h54V56.15z M2,2.85   C2,2.38,2.38,2,2.85,2h52.31C55.62,2,56,2.38,56,2.85V28H2V2.85z"></path><path d="M42.42,4H15.58C14.16,4,13,5.15,13,6.57v16.85c0,1.42,1.16,2.58,2.58,2.58h26.85c1.42,0,2.58-1.16,2.58-2.58V6.57   C45,5.15,43.84,4,42.42,4z M43,23.42c0,0.32-0.26,0.58-0.58,0.58H15.58C15.26,24,15,23.74,15,23.42V6.57C15,6.25,15.26,6,15.58,6   h26.85C42.74,6,43,6.25,43,6.57V23.42z"></path><path d="M15.58,55h26.85c1.42,0,2.58-1.16,2.58-2.58V34.58c0-1.42-1.16-2.58-2.58-2.58H15.58C14.16,32,13,33.16,13,34.58v17.85   C13,53.84,14.16,55,15.58,55z M15,34.58c0-0.32,0.26-0.58,0.58-0.58h26.85c0.32,0,0.58,0.26,0.58,0.58v17.85   c0,0.32-0.26,0.58-0.58,0.58H15.58C15.26,53,15,52.74,15,52.42V34.58z"></path><polygon points="7,44 9,44 9,41 12,41 12,39 9,39 9,36 7,36 7,39 4,39 4,41 7,41  "></polygon><circle cx="50.5" cy="38.5" r="1.5"></circle><circle cx="50.5" cy="43.5" r="1.5"></circle><circle cx="53.5" cy="41" r="1.5"></circle><circle cx="47.5" cy="41" r="1.5"></circle><path d="M3.29,12.29C3.11,12.47,3,12.73,3,13c0,0.26,0.11,0.52,0.29,0.71C3.48,13.89,3.74,14,4,14c0.26,0,0.52-0.11,0.71-0.29   C4.89,13.52,5,13.26,5,13c0-0.27-0.11-0.52-0.29-0.71C4.33,11.92,3.66,11.92,3.29,12.29z"></path><path d="M6.29,12.29C6.11,12.47,6,12.73,6,13c0,0.26,0.11,0.52,0.29,0.71C6.48,13.89,6.74,14,7,14c0.26,0,0.52-0.11,0.71-0.29   C7.89,13.52,8,13.26,8,13c0-0.27-0.11-0.52-0.29-0.71C7.33,11.92,6.66,11.92,6.29,12.29z"></path><path d="M9.29,12.29C9.11,12.48,9,12.73,9,13c0,0.26,0.11,0.52,0.29,0.71C9.48,13.89,9.74,14,10,14c0.26,0,0.52-0.11,0.71-0.29   C10.89,13.52,11,13.26,11,13c0-0.27-0.11-0.52-0.29-0.71C10.33,11.92,9.66,11.92,9.29,12.29z"></path><path d="M3.29,16.29C3.11,16.48,3,16.74,3,17s0.11,0.52,0.29,0.71C3.48,17.89,3.74,18,4,18c0.26,0,0.52-0.11,0.71-0.29   C4.89,17.52,5,17.26,5,17s-0.11-0.52-0.29-0.71C4.34,15.92,3.66,15.92,3.29,16.29z"></path><path d="M6.29,16.29C6.11,16.48,6,16.74,6,17s0.11,0.52,0.29,0.71C6.48,17.89,6.73,18,7,18c0.26,0,0.52-0.11,0.71-0.29   C7.89,17.52,8,17.26,8,17s-0.11-0.52-0.29-0.71C7.33,15.92,6.65,15.93,6.29,16.29z"></path><path d="M9.29,16.29C9.11,16.48,9,16.73,9,17c0,0.26,0.11,0.52,0.29,0.71C9.48,17.89,9.74,18,10,18c0.26,0,0.52-0.11,0.71-0.29   C10.89,17.52,11,17.26,11,17s-0.11-0.52-0.29-0.71C10.34,15.92,9.66,15.92,9.29,16.29z"></path><path d="M47.29,12.29C47.11,12.47,47,12.73,47,13c0,0.26,0.11,0.52,0.29,0.71C47.48,13.89,47.74,14,48,14   c0.26,0,0.52-0.11,0.71-0.29C48.89,13.52,49,13.26,49,13c0-0.27-0.11-0.52-0.29-0.71C48.33,11.92,47.66,11.92,47.29,12.29z"></path><path d="M50.29,12.29C50.11,12.47,50,12.73,50,13c0,0.26,0.11,0.52,0.29,0.71C50.48,13.89,50.74,14,51,14   c0.26,0,0.52-0.11,0.71-0.29C51.89,13.52,52,13.26,52,13c0-0.27-0.11-0.52-0.29-0.71C51.33,11.92,50.66,11.92,50.29,12.29z"></path><path d="M53.29,12.29C53.11,12.48,53,12.73,53,13c0,0.26,0.11,0.52,0.29,0.71C53.48,13.89,53.74,14,54,14   c0.26,0,0.52-0.11,0.71-0.29C54.89,13.52,55,13.26,55,13c0-0.27-0.11-0.52-0.29-0.71C54.33,11.92,53.66,11.92,53.29,12.29z"></path><path d="M47.29,16.29C47.11,16.48,47,16.73,47,17c0,0.26,0.11,0.52,0.29,0.71C47.48,17.89,47.74,18,48,18   c0.26,0,0.52-0.11,0.71-0.29C48.89,17.52,49,17.26,49,17s-0.11-0.52-0.29-0.71C48.34,15.92,47.66,15.92,47.29,16.29z"></path><path d="M50.29,16.29C50.11,16.48,50,16.74,50,17s0.11,0.52,0.29,0.71C50.48,17.89,50.73,18,51,18c0.26,0,0.52-0.11,0.71-0.29   C51.89,17.52,52,17.26,52,17s-0.11-0.52-0.29-0.71C51.33,15.92,50.65,15.93,50.29,16.29z"></path><path d="M53.29,16.29C53.11,16.48,53,16.73,53,17c0,0.26,0.11,0.52,0.29,0.71C53.48,17.89,53.74,18,54,18   c0.26,0,0.52-0.11,0.71-0.29C54.89,17.52,55,17.26,55,17s-0.11-0.52-0.29-0.71C54.34,15.92,53.66,15.92,53.29,16.29z"></path><path d="M18,42c0.26,0,0.51-0.1,0.71-0.29l4-4c0.39-0.39,0.39-1.02,0-1.41s-1.02-0.39-1.41,0l-4,4c-0.39,0.39-0.39,1.02,0,1.41   C17.49,41.9,17.74,42,18,42z"></path><path d="M18,47c0.26,0,0.51-0.1,0.71-0.29l2-2c0.39-0.39,0.39-1.02,0-1.41s-1.02-0.39-1.41,0l-2,2c-0.39,0.39-0.39,1.02,0,1.41   C17.49,46.9,17.74,47,18,47z"></path><path d="M21.29,41.29C21.11,41.48,21,41.74,21,42s0.11,0.52,0.29,0.71C21.48,42.89,21.74,43,22,43c0.27,0,0.52-0.11,0.71-0.29   C22.89,42.52,23,42.27,23,42c0-0.27-0.11-0.52-0.29-0.71C22.34,40.92,21.67,40.92,21.29,41.29z"></path><path d="M23.29,40.71C23.49,40.9,23.74,41,24,41s0.51-0.1,0.71-0.29l3-3c0.39-0.39,0.39-1.02,0-1.41s-1.02-0.39-1.41,0l-3,3   C22.9,39.68,22.9,40.32,23.29,40.71z"></path><path d="M18,14c0.26,0,0.51-0.1,0.71-0.29l4-4c0.39-0.39,0.39-1.02,0-1.41s-1.02-0.39-1.41,0l-4,4c-0.39,0.39-0.39,1.02,0,1.41   C17.49,13.9,17.74,14,18,14z"></path><path d="M19.29,15.29l-2,2c-0.39,0.39-0.39,1.02,0,1.41C17.49,18.9,17.74,19,18,19s0.51-0.1,0.71-0.29l2-2   c0.39-0.39,0.39-1.02,0-1.41S19.68,14.9,19.29,15.29z"></path><path d="M21.29,13.29C21.11,13.48,21,13.74,21,14s0.11,0.52,0.29,0.71C21.48,14.89,21.74,15,22,15c0.26,0,0.52-0.11,0.71-0.29   C22.89,14.52,23,14.26,23,14s-0.11-0.52-0.29-0.71C22.34,12.92,21.66,12.92,21.29,13.29z"></path><path d="M26.29,8.29l-3,3c-0.39,0.39-0.39,1.02,0,1.41C23.49,12.9,23.74,13,24,13s0.51-0.1,0.71-0.29l3-3   c0.39-0.39,0.39-1.02,0-1.41S26.68,7.9,26.29,8.29z"></path></g></svg>