<?xml version="1.0" encoding="iso-8859-1"?>
<!-- Generator: Adobe Illustrator 19.0.0, SVG Export Plug-In . SVG Version: 6.00 Build 0)  -->
<svg version="1.1" id="Capa_1" xmlns="http://www.w3.org/2000/svg" xmlns:xlink="http://www.w3.org/1999/xlink" x="0px" y="0px"
	 viewBox="0 0 512 512" style="enable-background:new 0 0 512 512;" xml:space="preserve">
<g>
	<g>
		<path d="M407.335,142.238l-37.586-37.591c-3.903-3.904-10.236-3.907-14.142-0.001c-3.906,3.905-3.906,10.236-0.001,14.142
			l37.586,37.591c1.952,1.952,4.511,2.929,7.071,2.929c2.559,0,5.119-0.976,7.071-2.928
			C411.24,152.475,411.24,146.144,407.335,142.238z"/>
	</g>
</g>
<g>
	<g>
		<path d="M156.393,393.213l-37.586-37.591c-3.904-3.905-10.236-3.906-14.142-0.001c-3.906,3.905-3.906,10.236-0.001,14.142
			l37.586,37.591c1.952,1.952,4.512,2.929,7.071,2.929c2.56,0,5.119-0.976,7.071-2.928
			C160.298,403.45,160.298,397.119,156.393,393.213z"/>
	</g>
</g>
<g>
	<g>
		<path d="M294.898,280.759c-0.46-0.46-0.97-0.88-1.52-1.24c-0.54-0.36-1.12-0.67-1.73-0.92c-0.599-0.25-1.229-0.44-1.869-0.57
			c-1.29-0.26-2.62-0.26-3.9,0c-0.64,0.13-1.271,0.32-1.88,0.57c-0.601,0.25-1.181,0.56-1.72,0.92
			c-0.551,0.36-1.061,0.78-1.521,1.24c-0.46,0.46-0.88,0.98-1.24,1.52c-0.37,0.55-0.67,1.13-0.92,1.73
			c-0.25,0.6-0.45,1.23-0.58,1.87c-0.12,0.65-0.189,1.3-0.189,1.95c0,0.66,0.069,1.31,0.189,1.96c0.13,0.64,0.33,1.27,0.58,1.87
			c0.25,0.6,0.55,1.18,0.92,1.73c0.36,0.54,0.78,1.05,1.24,1.52c0.46,0.46,0.97,0.88,1.521,1.24c0.539,0.36,1.119,0.67,1.72,0.92
			c0.609,0.25,1.24,0.44,1.88,0.57c0.639,0.13,1.3,0.2,1.95,0.2c0.649,0,1.309-0.07,1.951-0.2c0.64-0.13,1.269-0.32,1.869-0.57
			c0.61-0.25,1.19-0.56,1.73-0.92c0.55-0.36,1.06-0.78,1.52-1.24c0.46-0.47,0.881-0.98,1.24-1.52c0.36-0.55,0.67-1.13,0.92-1.73
			c0.25-0.6,0.45-1.23,0.57-1.87c0.13-0.65,0.2-1.3,0.2-1.96C297.829,285.199,296.758,282.619,294.898,280.759z"/>
	</g>
</g>
<g>
	<g>
		<path d="M396.178,281.13c-11.508,0-22.758,1.679-33.47,4.92l-30.045-30.05l39.493-39.499c9.513,2.633,19.443,3.993,29.581,3.993
			c29.445,0,57.129-11.469,77.949-32.292c14.838-14.839,25.082-33.462,29.627-53.858c4.42-19.833,3.302-40.47-3.231-59.681
			c-1.113-3.271-3.835-5.736-7.2-6.519c-3.365-0.785-6.896,0.225-9.339,2.668l-47.267,47.273l-48.382-48.386l47.269-47.275
			c2.443-2.443,3.451-5.974,2.668-9.338c-0.783-3.365-3.248-6.087-6.518-7.2c-19.207-6.535-39.842-7.652-59.675-3.232
			c-20.394,4.546-39.015,14.792-53.852,29.631c-29.058,29.062-38.471,70.445-28.239,107.489L256,179.327l-38.427-38.433
			c-0.129-0.129-0.261-0.254-0.395-0.374c10.239-37.048,0.828-78.439-28.234-107.505c-14.838-14.84-33.459-25.086-53.853-29.631
			c-19.832-4.42-40.466-3.303-59.675,3.232c-3.271,1.113-5.735,3.835-6.518,7.2c-0.784,3.364,0.225,6.895,2.668,9.338l47.268,47.275
			l-48.381,48.388L23.186,71.542c-2.443-2.443-5.976-3.451-9.339-2.669c-3.365,0.784-6.087,3.249-7.2,6.52
			c-6.534,19.21-7.652,39.847-3.232,59.681c4.545,20.396,14.79,39.019,29.626,53.859c20.822,20.824,48.504,32.292,77.95,32.292
			c10.14,0,20.072-1.36,29.584-3.994c0.046,0.048,0.093,0.097,0.141,0.144l38.619,38.624l-39.493,39.498
			c-9.513-2.633-19.443-3.993-29.58-3.993c-29.445,0-57.129,11.469-77.95,32.292C17.476,338.636,7.23,357.26,2.686,377.655
			c-4.42,19.834-3.302,40.471,3.232,59.681c1.112,3.271,3.835,5.736,7.2,6.52c3.363,0.781,6.895-0.225,9.339-2.669l47.266-47.273
			l48.381,48.387l-47.269,47.276c-2.442,2.443-3.451,5.974-2.667,9.338c0.783,3.365,3.248,6.087,6.519,7.2
			C86.196,510.03,98.216,512,110.27,512c8.063,0,16.143-0.882,24.091-2.654c20.394-4.546,39.015-14.792,53.853-29.631
			c29.057-29.062,38.47-70.445,28.238-107.489l39.548-39.553l29.66,29.664c0.146,0.146,0.295,0.285,0.447,0.42
			c-11.87,39.319-2.298,83.785,28.716,114.803c21.73,21.734,50.623,33.703,81.354,33.703c30.731,0,59.625-11.969,81.355-33.702
			c44.859-44.865,44.859-117.865,0-162.728C455.803,293.1,426.91,281.13,396.178,281.13z M337.929,46.425
			c17.286-17.288,40.102-26.497,63.578-26.497c4.299,0,8.623,0.31,12.936,0.934l-41.76,41.766c-3.905,3.905-3.905,10.236,0,14.142
			l62.522,62.53c1.875,1.876,4.419,2.929,7.071,2.929s5.196-1.054,7.071-2.929l41.757-41.763
			c4.038,27.868-5.109,56.071-25.56,76.524c-17.044,17.046-39.704,26.433-63.808,26.433c-9.809,0-19.38-1.555-28.429-4.548
			c-0.466-0.199-0.944-0.361-1.43-0.486c-12.632-4.416-24.207-11.657-33.949-21.4C302.745,138.872,302.745,81.615,337.929,46.425z
			 M303.439,160.167c5.125,10.112,11.908,19.594,20.348,28.034c8.341,8.342,17.784,15.183,27.999,20.387l-33.264,33.269
			l-48.381-48.387L303.439,160.167z M110.992,201.225c-24.102,0.001-46.763-9.388-63.807-26.433
			c-20.45-20.453-29.596-48.659-25.56-76.524l41.757,41.763c1.876,1.876,4.42,2.929,7.072,2.929c2.652,0,5.196-1.054,7.072-2.929
			l62.522-62.531c3.904-3.905,3.904-10.236,0-14.142L98.286,21.592c27.864-4.035,56.065,5.112,76.513,25.563
			c35.185,35.189,35.185,92.447,0,127.635C157.756,191.837,135.097,201.225,110.992,201.225z M174.07,465.574
			c-20.451,20.455-48.651,29.6-76.513,25.562l41.76-41.765c3.904-3.905,3.904-10.236,0-14.142L76.794,372.7
			c-1.875-1.875-4.419-2.929-7.071-2.929s-5.196,1.054-7.072,2.929l-41.756,41.763c-4.036-27.866,5.111-56.073,25.56-76.524
			c17.044-17.047,39.704-26.434,63.808-26.434c9.838,0,19.436,1.564,28.509,4.575c0.419,0.175,0.848,0.321,1.283,0.437
			c12.658,4.414,24.257,11.663,34.015,21.423C209.255,373.128,209.255,430.385,174.07,465.574z M208.561,351.832
			c-5.125-10.112-11.908-19.593-20.348-28.034c-8.341-8.343-17.784-15.183-27.999-20.387l33.264-33.269l48.381,48.388
			L208.561,351.832z M160.944,209.318c7.307-3.722,14.218-8.281,20.613-13.628l73.668,73.678c1.953,1.953,4.512,2.929,7.072,2.929
			c2.559,0,5.118-0.976,7.07-2.928c3.906-3.905,3.906-10.237,0.001-14.143l-73.673-73.683c5.386-6.456,9.918-13.389,13.597-20.646
			l133.362,133.38c-10.129,5.336-19.505,12.229-27.829,20.555c-8.421,8.422-15.26,17.835-20.52,27.866L160.944,209.318z
			 M463.391,463.42c-17.954,17.956-41.823,27.844-67.213,27.844c-25.389,0-49.259-9.889-67.213-27.844
			c-37.063-37.066-37.063-97.379,0-134.446c17.954-17.956,41.823-27.844,67.213-27.844s49.259,9.889,67.213,27.844
			C500.454,366.041,500.454,426.353,463.391,463.42z"/>
	</g>
</g>
<g>
	<g>
		<path d="M464.135,409.233l-15.621-58.306c-0.925-3.452-3.62-6.147-7.07-7.072l-58.299-15.623c-3.456-0.926-7.135,0.063-9.66,2.588
			l-42.678,42.683c-2.526,2.526-3.513,6.208-2.588,9.659l15.621,58.306c0.925,3.451,3.62,6.147,7.07,7.071l58.299,15.624
			c0.856,0.23,1.726,0.341,2.588,0.341c2.618,0,5.173-1.029,7.072-2.929l42.678-42.683
			C464.073,416.366,465.06,412.684,464.135,409.233z M408.81,443.349l-47.145-12.634l-12.633-47.153l34.514-34.517l47.145,12.634
			l12.633,47.153L408.81,443.349z"/>
	</g>
</g>
<g>
</g>
<g>
</g>
<g>
</g>
<g>
</g>
<g>
</g>
<g>
</g>
<g>
</g>
<g>
</g>
<g>
</g>
<g>
</g>
<g>
</g>
<g>
</g>
<g>
</g>
<g>
</g>
<g>
</g>
</svg>
