<?xml version="1.0" encoding="iso-8859-1"?>
<!-- Generator: Adobe Illustrator 19.0.0, SVG Export Plug-In . SVG Version: 6.00 Build 0)  -->
<svg xmlns="http://www.w3.org/2000/svg" xmlns:xlink="http://www.w3.org/1999/xlink" version="1.1" id="Capa_1" x="0px" y="0px" viewBox="0 0 496 496" style="enable-background:new 0 0 496 496;" xml:space="preserve" width="512px" height="512px">
<g>
	<g>
		<g>
			<rect x="192" y="344" width="16" height="16" fill="#FFFFFF"/>
			<rect x="168" y="368" width="16" height="16" fill="#FFFFFF"/>
			<rect x="216" y="368" width="16" height="16" fill="#FFFFFF"/>
			<rect x="192" y="392" width="16" height="16" fill="#FFFFFF"/>
			<polygon points="384,400 400,400 400,384 416,384 416,368 400,368 400,352 384,352 384,368 368,368 368,384 384,384    " fill="#FFFFFF"/>
			<rect x="312" y="392" width="16" height="16" fill="#FFFFFF"/>
			<rect x="264" y="392" width="16" height="16" fill="#FFFFFF"/>
			<path d="M464,152H288v16h176c8.824,0,16,7.176,16,16v72c0,8.824-7.176,16-16,16H312c-13.232,0-24,10.768-24,24v8h-96     c-30.88,0-56,25.12-56,56v101.592C136,480.56,151.44,496,170.408,496c11.088,0,21.552-5.384,28-14.408L228.12,440h135.768     l29.704,41.592c6.448,9.024,16.912,14.408,28,14.408C440.56,496,456,480.56,456,461.592V360c0-30.88-25.12-56-56-56h-96v-8     c0-4.408,3.592-8,8-8h152c17.648,0,32-14.352,32-32v-72C496,166.352,481.648,152,464,152z M344,320h56c22.056,0,40,17.944,40,40     v101.592c0,10.152-8.256,18.408-18.408,18.408c-5.936,0-11.528-2.88-14.976-7.704L372.12,424H219.88l-34.496,48.296     c-3.44,4.824-9.04,7.704-14.976,7.704C160.256,480,152,471.744,152,461.592V360c0-22.056,17.944-40,40-40h56v32h96V320z M328,320     v16h-64v-16H328z" fill="#FFFFFF"/>
			<rect x="344" y="240" width="16" height="16" fill="#FFFFFF"/>
			<rect x="376" y="240" width="16" height="16" fill="#FFFFFF"/>
			<rect x="408" y="240" width="16" height="16" fill="#FFFFFF"/>
			<rect x="344" y="120" width="16" height="16" fill="#FFFFFF"/>
			<rect x="376" y="120" width="16" height="16" fill="#FFFFFF"/>
			<rect x="408" y="120" width="16" height="16" fill="#FFFFFF"/>
			<path d="M272,136C272,61.008,210.992,0,136,0S0,61.008,0,136v152h272V136z M256,272h-16v-32h-16v32h-16v-32h-16v32h-16v-32h-16     v32h-16v-32h-16v32h-16v-32H96v32H80v-32H64v32H48v-32H32v32H16V136C16,69.832,69.832,16,136,16s120,53.832,120,120V272z" fill="#FFFFFF"/>
			<path d="M80,88c-17.648,0-32,14.352-32,32s14.352,32,32,32s32-14.352,32-32S97.648,88,80,88z M80,136c-8.824,0-16-7.176-16-16     c0-8.824,7.176-16,16-16s16,7.176,16,16S88.824,136,80,136z" fill="#FFFFFF"/>
			<path d="M192,88c-17.648,0-32,14.352-32,32s14.352,32,32,32s32-14.352,32-32S209.648,88,192,88z M192,136     c-8.824,0-16-7.176-16-16c0-8.824,7.176-16,16-16c8.824,0,16,7.176,16,16S200.824,136,192,136z" fill="#FFFFFF"/>
		</g>
	</g>
</g>
<g>
</g>
<g>
</g>
<g>
</g>
<g>
</g>
<g>
</g>
<g>
</g>
<g>
</g>
<g>
</g>
<g>
</g>
<g>
</g>
<g>
</g>
<g>
</g>
<g>
</g>
<g>
</g>
<g>
</g>
</svg>
