<?xml version="1.0" encoding="iso-8859-1"?>
<!-- Generator: Adobe Illustrator 19.0.0, SVG Export Plug-In . SVG Version: 6.00 Build 0)  -->
<svg xmlns="http://www.w3.org/2000/svg" xmlns:xlink="http://www.w3.org/1999/xlink" version="1.1" id="Capa_1" x="0px" y="0px" viewBox="0 0 205.251 205.251" style="enable-background:new 0 0 205.251 205.251;" xml:space="preserve" width="512px" height="512px">
<g>
	<g>
		<path d="M179.651,51.422h-153.6c-14.116,0-25.6,11.484-25.6,25.6c0,12.421,8.864,23.02,21.074,25.201    c1.86,0.333,3.628-0.905,3.959-2.76c0.333-1.855-0.903-3.628-2.76-3.96c-8.95-1.599-15.447-9.371-15.447-18.48    c0-10.351,8.422-18.773,18.773-18.773h153.6c10.351,0,18.773,8.422,18.773,18.773c0,10.351-8.422,18.773-18.773,18.773H130.16    c-1.884,0-3.413,1.529-3.413,3.413s1.529,3.413,3.413,3.413h49.492c14.118,0,25.6-11.486,25.6-25.602    S193.767,51.422,179.651,51.422z" fill="#FFFFFF"/>
	</g>
</g>
<g>
	<g>
		<path d="M26.052,65.077c-6.586,0-11.947,5.359-11.947,11.947c0,6.588,5.361,11.947,11.947,11.947    c6.588,0,11.947-5.359,11.947-11.947C37.998,70.436,32.638,65.077,26.052,65.077z M26.052,82.144c-2.823,0-5.12-2.297-5.12-5.12    c0-2.823,2.297-5.12,5.12-5.12c2.825,0,5.12,2.297,5.12,5.12C31.172,79.847,28.874,82.144,26.052,82.144z" fill="#FFFFFF"/>
	</g>
</g>
<g>
	<g>
		<path d="M164.291,65.077c-1.884,0-3.413,1.529-3.413,3.413v17.067c0,1.884,1.529,3.413,3.413,3.413    c1.886,0,3.413-1.529,3.413-3.413V68.491C167.705,66.606,166.176,65.077,164.291,65.077z" fill="#FFFFFF"/>
	</g>
</g>
<g>
	<g>
		<path d="M154.051,65.077c-1.884,0-3.413,1.529-3.413,3.413v17.067c0,1.884,1.529,3.413,3.413,3.413    c1.886,0,3.413-1.529,3.413-3.413V68.491C157.465,66.606,155.936,65.077,154.051,65.077z" fill="#FFFFFF"/>
	</g>
</g>
<g>
	<g>
		<path d="M143.812,65.077c-1.884,0-3.413,1.529-3.413,3.413v17.067c0,1.884,1.529,3.413,3.413,3.413    c1.886,0,3.413-1.529,3.413-3.413V68.491C147.225,66.606,145.696,65.077,143.812,65.077z" fill="#FFFFFF"/>
	</g>
</g>
<g>
	<g>
		<path d="M174.531,65.077c-1.884,0-3.413,1.529-3.413,3.413v17.067c0,1.884,1.529,3.413,3.413,3.413    c1.886,0,3.413-1.529,3.413-3.413V68.491C177.945,66.606,176.416,65.077,174.531,65.077z" fill="#FFFFFF"/>
	</g>
</g>
<g>
	<g>
		<path d="M179.651,7.051h-153.6c-14.116,0-25.6,11.484-25.6,25.6s11.484,25.6,25.6,25.6h153.6c14.118,0,25.6-11.484,25.6-25.6    S193.767,7.051,179.651,7.051z M179.651,51.424h-153.6c-10.351,0-18.773-8.422-18.773-18.773s8.422-18.773,18.773-18.773h153.6    c10.351,0,18.773,8.422,18.773,18.773S190.002,51.424,179.651,51.424z" fill="#FFFFFF"/>
	</g>
</g>
<g>
	<g>
		<path d="M26.052,20.704c-6.586,0-11.947,5.359-11.947,11.947s5.361,11.947,11.947,11.947c6.588,0,11.947-5.359,11.947-11.947    S32.638,20.704,26.052,20.704z M26.052,37.771c-2.823,0-5.12-2.297-5.12-5.12s2.297-5.12,5.12-5.12c2.825,0,5.12,2.297,5.12,5.12    S28.874,37.771,26.052,37.771z" fill="#FFFFFF"/>
	</g>
</g>
<g>
	<g>
		<path d="M164.291,20.704c-1.884,0-3.413,1.529-3.413,3.413v17.067c0,1.884,1.529,3.413,3.413,3.413    c1.886,0,3.413-1.529,3.413-3.413V24.117C167.705,22.233,166.176,20.704,164.291,20.704z" fill="#FFFFFF"/>
	</g>
</g>
<g>
	<g>
		<path d="M154.051,20.704c-1.884,0-3.413,1.529-3.413,3.413v17.067c0,1.884,1.529,3.413,3.413,3.413    c1.886,0,3.413-1.529,3.413-3.413V24.117C157.465,22.233,155.936,20.704,154.051,20.704z" fill="#FFFFFF"/>
	</g>
</g>
<g>
	<g>
		<path d="M143.812,20.704c-1.884,0-3.413,1.529-3.413,3.413v17.067c0,1.884,1.529,3.413,3.413,3.413    c1.886,0,3.413-1.529,3.413-3.413V24.117C147.225,22.233,145.696,20.704,143.812,20.704z" fill="#FFFFFF"/>
	</g>
</g>
<g>
	<g>
		<path d="M174.531,20.704c-1.884,0-3.413,1.529-3.413,3.413v17.067c0,1.884,1.529,3.413,3.413,3.413    c1.886,0,3.413-1.529,3.413-3.413V24.117C177.945,22.233,176.416,20.704,174.531,20.704z" fill="#FFFFFF"/>
	</g>
</g>
<g>
	<g>
		<path d="M146.994,142.289c-0.717-2.654-1.403-5.248-2.072-7.767c-6.18-23.33-10.644-40.187-22.465-43.686    c-4.669-1.384-14.382-4.265-24.87,1.958c-8.24,4.89-35.84,4.89-44.08,0c-10.484-6.223-20.2-3.342-24.888-1.952    c-11.802,3.494-16.266,20.35-22.446,43.68c-0.669,2.519-1.355,5.111-2.072,7.767c-5.495,20.344-5.466,39.687,0.07,49.278    c1.966,3.403,4.547,5.552,7.668,6.381c8.05,2.144,16.254-9.721,24.18-21.197c3.113-4.509,6.33-9.172,8.071-10.522    c1.208-0.937,5.833-3.081,22.596-2.866l20.871-0.015c14.283,0.065,18.355,2.036,19.446,2.881c1.739,1.35,4.958,6.013,8.071,10.522    c7.293,10.559,14.814,21.449,22.248,21.449c0.645,0,1.289-0.082,1.934-0.253c3.122-0.829,5.702-2.976,7.668-6.381    C152.461,181.974,152.49,162.632,146.994,142.289z M141.011,188.153c-1.026,1.775-2.207,2.85-3.511,3.197    c-3.42,0.939-12.802-12.677-16.809-18.478c-3.872-5.608-6.933-10.039-9.506-12.035c-2.34-1.818-7.334-4.241-23.615-4.314    l-20.838,0.017c-14.092-0.181-22.852,1.217-26.825,4.299c-2.574,1.997-5.632,6.427-9.506,12.035    c-4.006,5.801-13.399,19.386-16.809,18.478c-1.304-0.346-2.485-1.422-3.511-3.197c-3.833-6.637-5.128-22.842,0.608-44.085    c0.72-2.666,1.41-5.27,2.08-7.799c5.4-20.381,9.665-36.478,17.807-38.888c4.028-1.196,11.525-3.417,19.448,1.282    c10.255,6.086,40.788,6.086,51.046,0c7.919-4.698,15.415-2.476,19.468-1.277c8.122,2.403,12.385,18.502,17.785,38.881    c0.671,2.529,1.36,5.134,2.08,7.799C146.139,165.311,144.842,181.516,141.011,188.153z" fill="#FFFFFF"/>
	</g>
</g>
<g>
	<g>
		<rect x="37.993" y="112.866" width="6.827" height="27.307" fill="#FFFFFF"/>
	</g>
</g>
<g>
	<g>
		<rect x="27.753" y="123.106" width="27.307" height="6.827" fill="#FFFFFF"/>
	</g>
</g>
<g>
	<g>
		<path d="M107.971,112.864c-8.47,0-15.36,6.892-15.36,15.36c0,8.469,6.89,15.36,15.36,15.36s15.36-6.892,15.36-15.36    C123.331,119.755,116.442,112.864,107.971,112.864z M107.971,136.757c-4.705,0-8.533-3.828-8.533-8.533    c0-4.705,3.828-8.533,8.533-8.533s8.533,3.828,8.533,8.533C116.505,132.929,112.677,136.757,107.971,136.757z" fill="#FFFFFF"/>
	</g>
</g>
<g>
</g>
<g>
</g>
<g>
</g>
<g>
</g>
<g>
</g>
<g>
</g>
<g>
</g>
<g>
</g>
<g>
</g>
<g>
</g>
<g>
</g>
<g>
</g>
<g>
</g>
<g>
</g>
<g>
</g>
</svg>
