<?xml version="1.0" encoding="iso-8859-1"?>
<!-- Generator: Adobe Illustrator 16.0.0, SVG Export Plug-In . SVG Version: 6.00 Build 0)  -->
<!DOCTYPE svg PUBLIC "-//W3C//DTD SVG 1.1//EN" "http://www.w3.org/Graphics/SVG/1.1/DTD/svg11.dtd">
<svg xmlns="http://www.w3.org/2000/svg" xmlns:xlink="http://www.w3.org/1999/xlink" version="1.1" id="Capa_1" x="0px" y="0px" width="512px" height="512px" viewBox="0 0 113.324 113.324" style="enable-background:new 0 0 113.324 113.324;" xml:space="preserve">
<g>
	<path d="M105.906,61.818v-55.9H33.574v55.059h11.258c1.266,0,2.4,0.559,3.182,1.439h4.401c0.03,0,0.062-0.002,0.091-0.002   c0.379-0.564,0.938-1.014,1.623-1.271c3.166-1.201,6.455-1.156,9.609,0.135c0.437,0.178,0.83,0.402,1.172,0.668   c0.309,0.24,0.57,0.531,0.777,0.854c0.292,0.217,0.611,0.51,0.881,0.902c0.503,0.732,0.99,1.476,1.479,2.219l0.613,0.932   c1.158,1.752,1.807,3.631,2.24,5.073c0.938,3.119,1.78,6.522,2.576,10.407c0.647,3.169,1.368,6.925,1.787,10.752   c0.214,1.951,0.311,3.845,0.287,5.626c-0.003,0.237-0.023,0.457-0.037,0.685H99.6h6.307h7.418v-34.83   C110.42,64.564,107.938,63.382,105.906,61.818z M71.707,33.892c-0.546,0.004-0.887-0.117-1.245-0.398   c-0.816,0.467-1.652,0.553-2.521,0.17c-0.368-0.163-0.569-0.459-0.63-0.853c-0.019-0.118-0.021-0.239-0.021-0.36   c-0.001-1.641-0.001-3.282-0.001-4.924c0-0.1,0-0.2,0-0.325c0.213,0,0.407,0,0.643,0c0,0.106,0,0.214,0,0.32   c0,1.521,0,3.041,0,4.561c0.002,0.512,0.152,0.729,0.647,0.82c0.431,0.081,0.865,0.062,1.261-0.163   c0.214-0.122,0.266-0.329,0.266-0.568c-0.006-1.54-0.004-3.08-0.004-4.62c0-0.109,0-0.219,0-0.363c0.231,0,0.421,0,0.654,0   c0,0.114,0,0.221,0,0.327c0.002,1.54,0.003,3.08,0.004,4.621c0.001,0.438,0.082,0.58,0.487,0.722   c0.429,0.148,0.854,0.116,1.247-0.123c0.214-0.13,0.236-0.354,0.236-0.584c-0.003-1.521-0.001-3.041-0.001-4.562   c0-0.119,0-0.239,0-0.387c0.211,0,0.405,0,0.646,0c0,0.113,0,0.229,0,0.345l0.014,4.712C73.43,33.446,72.809,33.885,71.707,33.892z    M73.446,26.408c-0.185,0-0.351,0.004-0.517-0.004c-0.028-0.002-0.061-0.05-0.078-0.083c-0.014-0.021-0.003-0.054-0.003-0.082   c0-1.071,0.001-2.143-0.001-3.214c0-0.103-0.007-0.207-0.03-0.306c-0.07-0.305-0.32-0.517-0.66-0.563   c-0.113-0.015-0.229-0.022-0.342-0.023c-0.901-0.002-1.804,0.005-2.705-0.004c-0.525-0.005-0.974-0.19-1.276-0.646   c-0.195-0.296-0.266-0.632-0.268-0.98c-0.002-1.324,0-2.649-0.002-3.975c0-0.091,0.022-0.129,0.119-0.125   c0.139,0.006,0.276,0.006,0.414,0.001c0.08-0.002,0.108,0.03,0.104,0.105c-0.003,0.027-0.001,0.055-0.001,0.083   c0,1.118,0.016,2.238-0.005,3.356c-0.012,0.655,0.387,0.918,0.932,0.923c0.931,0.008,1.859,0.002,2.787,0.003   c0.346,0.001,0.667,0.081,0.949,0.287c0.373,0.272,0.571,0.657,0.576,1.106c0.017,1.348,0.007,2.695,0.007,4.044   C73.446,26.339,73.446,26.366,73.446,26.408z M73.446,10.042c0,2.341,0,4.682,0,7.022c0,0.771-0.577,1.392-1.348,1.449   c-0.365,0.027-0.721-0.006-1.046-0.186c-0.468-0.256-0.682-0.676-0.736-1.188c-0.018-0.164-0.021-0.331-0.021-0.497   c-0.001-1.546-0.01-3.092,0.006-4.638c0.006-0.532-0.366-0.801-0.765-0.845c-0.141-0.016-0.284-0.016-0.427-0.016   c-0.474-0.002-0.948-0.003-1.422,0c-0.089,0.001-0.127-0.021-0.125-0.119c0.006-0.345,0.004-0.688,0-1.033   c-0.002-0.084,0.03-0.111,0.108-0.11c0.63,0.007,1.26-0.014,1.886,0.023c0.756,0.044,1.387,0.626,1.377,1.462   c-0.017,1.673-0.004,3.346-0.004,5.018c0,0.512,0.229,0.791,0.737,0.858c0.182,0.024,0.374,0.017,0.554-0.021   c0.416-0.086,0.625-0.365,0.625-0.8c0.002-0.878,0.001-1.756,0.001-2.634c0-1.254,0.001-2.506-0.003-3.76   c0-0.112,0.025-0.156,0.145-0.148c0.146,0.011,0.291,0.002,0.456,0.002C73.446,9.948,73.446,9.995,73.446,10.042z M15.734,77.958   c0.203,0.244,0.332,0.57,0.332,0.871v3.074c0,0.574-0.467,1.041-1.043,1.041h-2.329c-0.575,0-1.042-0.467-1.042-1.041V78.83   c0-0.363,0.188-0.768,0.471-1.014l1.47-1.606c0.151-0.165,0.394-0.165,0.545,0l1.601,1.749H15.734z M13.057,75.568l-1.607,1.471   c-0.248,0.281-0.65,0.47-1.015,0.47H7.362c-0.575,0-1.041-0.466-1.041-1.042v-2.33c0-0.576,0.466-1.043,1.041-1.043h3.073   c0.3,0,0.628,0.128,0.872,0.332v-0.004l1.75,1.602C13.221,75.173,13.221,75.417,13.057,75.568z M27.52,73.32v-0.041v-8.222v-0.019   c0-0.788,0.641-1.428,1.427-1.428h15.855c0.786,0,1.427,0.64,1.427,1.428v0.041V73.3v0.02c0,0.787-0.641,1.428-1.428,1.428H28.947   C28.161,74.748,27.52,74.107,27.52,73.32z M12.123,73.121c-0.283-0.248-0.471-0.651-0.471-1.016v-3.072   c0-0.576,0.467-1.043,1.042-1.043h2.329c0.576,0,1.043,0.467,1.043,1.043v3.072c0,0.301-0.129,0.629-0.332,0.873h0.004l-1.601,1.75   c-0.151,0.164-0.394,0.164-0.545,0L12.123,73.121z M62.894,75.162c0,1.342,1.087,2.428,2.427,2.428s2.426-1.086,2.426-2.428   c0-1.338-1.086-2.426-2.426-2.426S62.894,73.824,62.894,75.162z M66.908,75.132c0,0.876-0.712,1.589-1.588,1.589   c-0.875,0-1.588-0.713-1.588-1.589c0-0.875,0.713-1.587,1.588-1.587C66.196,73.546,66.908,74.257,66.908,75.132z M59.892,68.804   l1.163,1.971h-2.326L59.892,68.804z M59.892,67.508c-1.34,0-2.428,1.087-2.428,2.427s1.088,2.426,2.428,2.426   c1.341,0,2.426-1.086,2.426-2.426S61.232,67.508,59.892,67.508z M58.203,71.074l1.688-2.857l1.688,2.857H58.203z M65.32,73.844   c0.711,0,1.289,0.578,1.289,1.288s-0.578,1.288-1.289,1.288c-0.709,0-1.287-0.578-1.287-1.288S64.611,73.844,65.32,73.844z    M59.892,77.973c-1.34,0-2.428,1.087-2.428,2.425c0,1.342,1.088,2.428,2.428,2.428c1.341,0,2.426-1.086,2.426-2.428   C62.317,79.06,61.232,77.973,59.892,77.973z M61.369,81.537l-0.274,0.275l-1.14-1.137l-1.137,1.137l-0.277-0.275l1.14-1.139   l-1.14-1.138l0.277-0.276l1.137,1.141l1.14-1.141l0.274,0.276l-1.137,1.138L61.369,81.537z M71.626,83.402   c-0.727-3.551-1.564-7.076-2.609-10.549c-0.474-1.572-1.042-3.101-1.955-4.48c-0.714-1.077-1.414-2.164-2.146-3.229   c-0.135-0.197-0.376-0.334-0.593-0.453c-0.165-0.093-0.286-0.158-0.3-0.377c-0.006-0.117-0.104-0.252-0.201-0.328   c-0.153-0.119-0.332-0.211-0.512-0.285c-2.582-1.057-5.18-1.1-7.792-0.109c-0.223,0.084-0.348,0.234-0.326,0.465   c0.033,0.359-0.105,0.559-0.471,0.592c-0.027,0.002-0.057,0.018-0.082,0.03c-0.615,0.317-1.275,0.427-1.96,0.431h-5.762v8.211   c0,1.168-0.95,2.121-2.118,2.121H28.947c-1.168,0-2.117-0.953-2.117-2.121l0.018-8.211h-5.803   c-0.686-0.004-1.346-0.111-1.961-0.431c-0.025-0.015-0.054-0.028-0.082-0.03c-0.364-0.033-0.504-0.231-0.471-0.592   c0.021-0.23-0.104-0.381-0.326-0.465c-2.611-0.99-5.209-0.947-7.791,0.109c-0.18,0.074-0.359,0.166-0.511,0.285   c-0.097,0.076-0.196,0.211-0.202,0.328c-0.013,0.219-0.135,0.284-0.3,0.377c-0.217,0.119-0.458,0.256-0.592,0.453   c-0.731,1.063-1.431,2.15-2.146,3.229c-0.912,1.381-1.482,2.908-1.955,4.48c-1.045,3.473-1.883,6.998-2.61,10.549   c-0.739,3.609-1.413,7.233-1.813,10.896c-0.199,1.816-0.305,3.654-0.282,5.48c0.032,2.408,0.561,4.066,2.897,5.988   c4.076,3.15,9.584,1.094,10.749-0.625c1.166-1.723,2.159-4.396,2.95-6.723c0.646-1.891,1.29-3.781,1.921-5.678   c0.202-0.604,0.706-0.832,1.219-1.057c0.062-0.027,0.185,0.032,0.257,0.084c2.811,2.049,6.371,1.984,9.109-0.152   c0.14-0.108,0.35-0.184,0.526-0.184c0.809,0,2.893,0.002,4.938,0.006v0.01c0.447-0.002,1.285-0.004,2.292-0.006   c1.007,0.002,1.845,0.004,2.292,0.006v-0.01c2.047-0.004,4.131-0.006,4.939-0.006c0.177,0,0.387,0.074,0.525,0.184   c2.738,2.138,6.299,2.201,9.109,0.152c0.072-0.052,0.195-0.111,0.258-0.084c0.512,0.225,1.017,0.451,1.219,1.057   c0.631,1.896,1.275,3.787,1.92,5.678c0.791,2.324,1.785,5,2.951,6.723c1.165,1.719,6.672,3.775,10.749,0.625   c2.336-1.922,2.865-3.58,2.896-5.988c0.021-1.826-0.082-3.664-0.281-5.48C73.039,90.635,72.365,87.011,71.626,83.402z    M22.858,67.627c0-0.822,0.666-1.488,1.487-1.488c0.823,0,1.49,0.666,1.49,1.488v3.063c0,0.822-0.667,1.488-1.49,1.488   c-0.821,0-1.487-0.666-1.487-1.488V67.627z M13.908,83.644c-4.605,0-8.338-3.732-8.338-8.338s3.732-8.337,8.338-8.337   c4.604,0,8.336,3.731,8.336,8.337S18.512,83.644,13.908,83.644z M24.617,91.96c-2.393,0-4.332-1.938-4.332-4.331   s1.939-4.332,4.332-4.332s4.332,1.938,4.332,4.332C28.949,90.021,27.01,91.96,24.617,91.96z M34.277,87.717   c-0.267-0.002-0.4,0.185-0.422,0.384c-0.008,0.07-0.008,0.141-0.008,0.213c-0.002,0.238-0.002,0.477,0,0.715   c0,0.043-0.012,0.062-0.061,0.062c-0.174-0.004-0.346-0.001-0.519,0c-0.042,0-0.056-0.016-0.056-0.057   c0.004-0.313-0.006-0.631,0.013-0.944c0.022-0.378,0.313-0.692,0.732-0.688c0.839,0.008,1.677,0.002,2.515,0.002   c0.257,0,0.398-0.115,0.431-0.371c0.013-0.09,0.009-0.188-0.011-0.275c-0.043-0.209-0.182-0.312-0.4-0.312   c-0.439-0.002-0.88-0.002-1.32-0.002c-0.628,0-1.256,0-1.884,0.002c-0.057,0-0.079-0.015-0.075-0.072   c0.005-0.072,0.002-0.145,0.002-0.229c0.031,0,0.055,0,0.079,0c1.173,0,2.347,0,3.521,0c0.385,0,0.697,0.291,0.726,0.676   c0.014,0.185-0.003,0.361-0.093,0.524c-0.129,0.233-0.339,0.341-0.596,0.369c-0.082,0.009-0.166,0.009-0.249,0.009   C35.827,87.721,35.053,87.726,34.277,87.717z M41.495,86.4c-0.001,0.016-0.025,0.028-0.042,0.041c-0.01,0.006-0.025,0-0.041,0   c-0.536,0-1.074,0-1.611,0.002c-0.051,0-0.104,0.002-0.152,0.014c-0.152,0.037-0.26,0.16-0.282,0.332   c-0.007,0.057-0.011,0.115-0.013,0.172c0,0.451,0.003,0.902-0.001,1.355c-0.003,0.264-0.095,0.487-0.323,0.639   c-0.148,0.099-0.318,0.136-0.492,0.136c-0.664,0.001-1.328,0-1.992,0.001c-0.045,0-0.064-0.014-0.063-0.061   c0.003-0.068,0.003-0.139,0-0.207c-0.001-0.041,0.016-0.057,0.053-0.053c0.014,0.002,0.027,0,0.042,0   c0.561,0,1.122-0.008,1.683,0.004c0.328,0.006,0.459-0.195,0.463-0.467c0.004-0.467,0-0.933,0.001-1.398   c0-0.172,0.041-0.334,0.144-0.475c0.137-0.188,0.33-0.287,0.555-0.289c0.676-0.009,1.352-0.006,2.027-0.006   c0.013,0,0.027,0,0.048,0C41.497,86.236,41.499,86.318,41.495,86.4z M47.89,67.627c0-0.822,0.666-1.488,1.489-1.488   c0.822,0,1.488,0.666,1.488,1.488v3.063c0,0.822-0.666,1.488-1.488,1.488c-0.823,0-1.489-0.666-1.489-1.488V67.627z M49.107,91.96   c-2.393,0-4.332-1.938-4.332-4.331s1.939-4.332,4.332-4.332s4.332,1.938,4.332,4.332C53.439,90.021,51.5,91.96,49.107,91.96z    M59.817,83.644c-4.604,0-8.337-3.732-8.337-8.338s3.732-8.337,8.337-8.337c4.604,0,8.337,3.731,8.337,8.337   S64.422,83.644,59.817,83.644z M54.627,72.736c-1.34,0-2.427,1.088-2.427,2.426c0,1.342,1.087,2.428,2.427,2.428   c1.34,0,2.428-1.086,2.428-2.428C57.055,73.824,55.967,72.736,54.627,72.736z M55.946,76.453h-2.64v-2.639h2.64V76.453z    M21.273,74.136v2.329c0,0.576-0.465,1.042-1.041,1.042H17.16c-0.365,0-0.768-0.188-1.016-0.471l-1.607-1.471   c-0.164-0.149-0.164-0.395,0-0.545l1.75-1.601v0.004c0.244-0.204,0.571-0.332,0.873-0.332h3.072   C20.808,73.093,21.273,73.56,21.273,74.136z M55.646,76.154h-2.041v-2.041h2.041V76.154z" fill="#FFFFFF"/>
</g>
<g>
</g>
<g>
</g>
<g>
</g>
<g>
</g>
<g>
</g>
<g>
</g>
<g>
</g>
<g>
</g>
<g>
</g>
<g>
</g>
<g>
</g>
<g>
</g>
<g>
</g>
<g>
</g>
<g>
</g>
</svg>
