<?xml version="1.0" encoding="iso-8859-1"?>
<!DOCTYPE svg PUBLIC "-//W3C//DTD SVG 1.1//EN" "http://www.w3.org/Graphics/SVG/1.1/DTD/svg11.dtd">
<svg xmlns="http://www.w3.org/2000/svg" xmlns:xlink="http://www.w3.org/1999/xlink" version="1.1" viewBox="0 0 476.37 476.37" enable-background="new 0 0 476.37 476.37" width="512px" height="512px">
  <g>
    <path d="m449.808,154.873c-1.412-1.935-3.663-3.079-6.059-3.079h-3.543c-3.172-8.275-11.122-14.06-20.537-14.06h-5.169c-1.256-2.463-3.81-4.09-6.68-4.09h-339.27c-2.87,0-5.424,1.627-6.68,4.09h-5.17c-9.415,0-17.365,5.785-20.537,14.06h-3.543c-2.395,0-4.646,1.144-6.058,3.079-17.377,23.811-26.562,52.025-26.562,81.592 0,31.225 10.132,60.696 29.3,85.228 1.421,1.819 3.601,2.882 5.91,2.882h0.953c3.172,8.275 11.122,14.06 20.537,14.06h5.17c1.256,2.463 3.81,4.09 6.68,4.09h339.27c2.87,0 5.424-1.627 6.68-4.09h5.169c9.415,0 17.365-5.785 20.537-14.06h0.963c2.31,0 4.489-1.064 5.911-2.884 19.161-24.536 29.289-54.006 29.289-85.226 0.001-29.566-9.184-57.78-26.561-81.592zm-21.106-3.078h-10.895l-.882-4.06h2.744c3.615,2.84217e-14 6.835,1.564 9.033,4.06zm-372.002-4.06h2.745l-.881,4.06h-10.897c2.198-2.496 5.418-4.06 9.033-4.06zm-9.033,176.84h10.896l.881,4.06h-2.744c-3.615,0-6.835-1.564-9.033-4.06zm372.002,4.06h-2.744l.882-4.06h10.896c-2.199,2.496-5.419,4.06-9.034,4.06zm17.776-19.06h-25.685c-3.529,0-6.581,2.46-7.329,5.909l-2.658,12.241h-327.177l-2.657-12.241c-0.749-3.449-3.8-5.909-7.329-5.909h-25.677c-15.67-21.278-23.933-46.478-23.933-73.11 0-25.104 7.421-49.109 21.501-69.67h28.109c3.529,0 6.581-2.46 7.329-5.909l2.657-12.241h327.177l2.658,12.241c0.748,3.449 3.8,5.909 7.329,5.909h28.107c14.08,20.562 21.502,44.567 21.502,69.67 0.001,26.629-8.259,51.828-23.924,73.11z" fill="#FFFFFF"/>
    <path d="m366.35,156.145h-256.331c-2.761,0-5,2.239-5,5v145.19c0,2.761 2.239,5 5,5h256.331c2.762,0 5-2.239 5-5v-145.19c0-2.761-2.238-5-5-5zm-5,145.19h-246.331v-135.19h246.331v135.19z" fill="#FFFFFF"/>
    <path d="m459.424,226.705c0-7.109-4.743-13.123-11.229-15.064-3.36-6.865-8.941-12.445-15.803-15.801-1.94-6.486-7.956-11.23-15.064-11.23-7.11,0-13.125,4.745-15.065,11.233-6.859,3.359-12.439,8.938-15.798,15.797-6.487,1.939-11.232,7.955-11.232,15.065 0,7.108 4.743,13.123 11.228,15.063 3.36,6.865 8.941,12.447 15.804,15.803 1.941,6.485 7.956,11.229 15.064,11.229 7.109,0 13.124-4.744 15.064-11.231 6.863-3.356 12.444-8.936 15.804-15.801 6.485-1.94 11.227-7.955 11.227-15.063zm-15.727-5.727c3.158,0 5.728,2.569 5.728,5.728s-2.569,5.728-5.728,5.728-5.728-2.569-5.728-5.728 2.57-5.728 5.728-5.728zm-26.368-26.368c3.158,0 5.728,2.569 5.728,5.728 0,3.158-2.569,5.727-5.728,5.727s-5.728-2.569-5.728-5.727c0-3.159 2.569-5.728 5.728-5.728zm-26.369,37.823c-3.158,0-5.728-2.569-5.728-5.728s2.569-5.728 5.728-5.728 5.728,2.569 5.728,5.728-2.569,5.728-5.728,5.728zm26.369,26.368c-3.158,0-5.728-2.569-5.728-5.727 0-3.158 2.569-5.728 5.728-5.728s5.728,2.569 5.728,5.728c-0.001,3.157-2.57,5.727-5.728,5.727zm14.24-12.359c-2.508-5.363-7.94-9.096-14.241-9.096-6.301,0-11.734,3.733-14.241,9.097-2.113-1.527-3.969-3.383-5.497-5.496 5.364-2.508 9.098-7.94 9.098-14.242 0-6.3-3.732-11.731-9.093-14.24 1.527-2.111 3.383-3.967 5.494-5.494 2.509,5.361 7.94,9.093 14.239,9.093 6.301,0 11.733-3.733 14.241-9.096 2.112,1.527 3.968,3.383 5.496,5.495-5.363,2.508-9.097,7.94-9.097,14.241s3.734,11.733 9.097,14.241c-1.527,2.114-3.383,3.97-5.496,5.497z" fill="#FFFFFF"/>
    <path d="m60.06,188.743c-20.933,0-37.963,17.03-37.963,37.962s17.03,37.962 37.963,37.962 37.962-17.03 37.962-37.962-17.03-37.962-37.962-37.962zm3.518,10.229v6.777l-3.52,2.755-3.52-2.755v-6.777c1.155-0.146 2.328-0.229 3.521-0.229 1.193,0 2.366,0.083 3.519,0.229zm-31.481,27.733c0-1.193 0.084-2.366 0.229-3.521h6.776l2.755,3.52-2.755,3.52h-6.777c-0.145-1.153-0.228-2.326-0.228-3.519zm24.441,27.733v-6.778l3.52-2.755 3.52,2.755v6.778c-1.154,0.146-2.326,0.229-3.519,0.229-1.193,0.001-2.366-0.083-3.521-0.229zm17.04-3.266v-5.947c0-1.538-0.708-2.989-1.918-3.937l-8.52-6.67c-1.811-1.417-4.354-1.417-6.164,0l-8.52,6.67c-1.21,0.948-1.918,2.399-1.918,3.937v5.946c-4.594-2.549-8.397-6.352-10.945-10.946h5.945c1.538,0 2.989-0.708 3.937-1.918l6.67-8.52c1.417-1.81 1.417-4.354 0-6.164l-6.67-8.52c-0.948-1.21-2.399-1.918-3.937-1.918h-5.945c2.548-4.593 6.351-8.396 10.945-10.945v5.945c0,1.538 0.708,2.989 1.918,3.937l8.52,6.67c0.905,0.708 1.994,1.063 3.082,1.063s2.177-0.354 3.082-1.063l8.52-6.67c1.21-0.948 1.918-2.399 1.918-3.937v-5.946c4.594,2.549 8.398,6.352 10.947,10.946h-5.947c-1.538,0-2.989,0.708-3.937,1.918l-6.67,8.52c-1.417,1.81-1.417,4.354 0,6.164l6.67,8.52c0.948,1.21 2.399,1.918 3.937,1.918h5.948c-2.549,4.594-6.353,8.398-10.948,10.947zm14.444-24.467c0,1.193-0.084,2.366-0.229,3.52h-6.779l-2.755-3.52 2.755-3.52h6.779c0.145,1.154 0.229,2.327 0.229,3.52z" fill="#FFFFFF"/>
    <path d="m54.499,270.223c-9.088,0-16.481,7.394-16.481,16.481s7.394,16.481 16.481,16.481 16.481-7.394 16.481-16.481-7.394-16.481-16.481-16.481zm0,22.963c-3.574,0-6.481-2.908-6.481-6.481s2.908-6.481 6.481-6.481 6.481,2.908 6.481,6.481-2.908,6.481-6.481,6.481z" fill="#FFFFFF"/>
    <path d="m126.315,314.509h-16.296c-2.761,0-5,2.239-5,5s2.239,5 5,5h16.296c2.761,0 5-2.239 5-5s-2.238-5-5-5z" fill="#FFFFFF"/>
    <path d="m161.13,314.509h-16.296c-2.761,0-5,2.239-5,5s2.239,5 5,5h16.296c2.761,0 5-2.239 5-5s-2.239-5-5-5z" fill="#FFFFFF"/>
    <path d="m331.536,314.509h-16.296c-2.762,0-5,2.239-5,5s2.238,5 5,5h16.296c2.762,0 5-2.239 5-5s-2.239-5-5-5z" fill="#FFFFFF"/>
    <path d="m366.35,314.509h-16.296c-2.762,0-5,2.239-5,5s2.238,5 5,5h16.296c2.762,0 5-2.239 5-5s-2.238-5-5-5z" fill="#FFFFFF"/>
  </g>
</svg>
