<?xml version="1.0" encoding="iso-8859-1"?>
<!-- Generator: Adobe Illustrator 19.0.0, SVG Export Plug-In . SVG Version: 6.00 Build 0)  -->
<svg xmlns="http://www.w3.org/2000/svg" xmlns:xlink="http://www.w3.org/1999/xlink" version="1.1" id="Capa_1" x="0px" y="0px" viewBox="0 0 512 512" style="enable-background:new 0 0 512 512;" xml:space="preserve" width="512px" height="512px">
<g>
	<g>
		<path d="M108.352,222.755H57.098c-1.104,0-2,0.895-2,2v4.22c0,1.105,0.896,2,2,2c0.118,0,47.215,0.003,47.333-0.005    c7.236-0.532,9.729,5.012,9.729,9.741c0,4.962-1.188,9.6-9.724,9.927l-32.332,0.001c-10.014,0-17.006,7.716-17.006,18.764v17.951    c0,1.104,0.896,2,2,2h9.769c1.104,0,2-0.896,2-2v-18.711c0-5.483,2.983-9.026,7.601-9.026h31.885    c12.923,0,19.475-6.361,19.475-18.907C127.829,235.311,125.931,222.755,108.352,222.755z" fill="#FFFFFF"/>
	</g>
</g>
<g>
	<g>
		<path d="M198.745,222.755H171.15c-11.917,0-18.48,6.41-18.48,18.05v30.402c0,5.88-3.416,9.832-8.5,9.832h-23.996    c-1.104,0-2,0.896-2,2v4.22c0,1.105,0.896,2,2,2h27.795c12.701,0,18.875-5.904,18.875-18.052v-30.402    c0-6.015,2.315-10.047,8.385-9.826l23.516-0.002c1.104,0,2-0.895,2-2v-4.222C200.745,223.651,199.85,222.755,198.745,222.755z" fill="#FFFFFF"/>
	</g>
</g>
<g>
	<g>
		<path d="M287.945,223.635c-0.752-1.25-1.583-0.968-6.867-0.968c-0.738,0-1.417,0.407-1.765,1.058    c-3.976,7.451-23.874,44.735-25.087,47.028c-1.614,3.082-4.659,2.561-6.076-0.277l-25.187-46.757    c-0.746-1.386-1.127-1.052-12.731-1.052c-1.506,0-2.473,1.608-1.767,2.937c1.041,1.963,29.587,55.796,30.703,57.715    c2.119,3.644,4.82,6.197,9.23,6.197c4.606,0,7.568-4.157,9.806-7.826c1.111-1.815,26.864-50.54,29.798-56.089    C288.328,224.983,288.308,224.237,287.945,223.635z" fill="#FFFFFF"/>
	</g>
</g>
<g>
	<g>
		<path d="M456.017,286.581c-3.039-5.73-29.72-56.036-30.684-57.693l-0.085-0.145c-1.115-1.916-3.437-5.9-8.852-6.192    c-5.275-0.293-8.589,5.15-10.015,7.5l-0.198,0.325c-1.131,1.841-26.926,50.647-29.862,56.206    c-0.703,1.329,0.262,2.935,1.768,2.935c5.243,0,6.215,0.302,6.934-1.074l6.797-13.013l42.628,0.125l7.04,12.919    c0.758,1.391,1.173,1.043,12.76,1.043c0.701,0,1.352-0.368,1.714-0.969S456.345,287.201,456.017,286.581z M396.442,267.133    c0.039-0.075,13.03-24.485,13.722-25.792c0.411-0.783,1.333-2.096,2.891-2.096c1.242,0,2.459,0.888,3.201,2.374l13.792,25.603    L396.442,267.133z" fill="#FFFFFF"/>
	</g>
</g>
<g>
	<g>
		<path d="M387.51,223.075c-0.375-0.378-0.886-0.59-1.418-0.59c-0.002,0-0.002,0-0.003,0l-1.153,0.002    c-42.251,0.05-35.321,0.041-61.42,0.041c-1.104,0-2,0.896-2,2v4.099c0,1.103,0.893,1.998,1.996,2l24.317,0.047v56.249    c0,1.104,0.896,2,2,2h9.863c1.103,0,2-0.896,2-2c0-53.996,0.06-44.121-0.204-56.305l24.569,0.052c0.001,0,0.002,0,0.004,0    c1.099,0,1.992-0.886,2-1.985l0.031-4.186C388.096,223.966,387.886,223.453,387.51,223.075z" fill="#FFFFFF"/>
	</g>
</g>
<g>
	<g>
		<path d="M310.498,222.891h-10.094c-1.104,0-2,0.895-2,2V287.3c0,1.104,0.896,2,2,2h10.094c1.105,0,2-0.896,2-2v-62.409    C312.498,223.787,311.604,222.891,310.498,222.891z" fill="#FFFFFF"/>
	</g>
</g>
<g>
	<g>
		<path d="M492.498,155.046H273.501c-4.143,0-7.5,3.358-7.5,7.5c0,4.142,3.357,7.5,7.5,7.5h218.998c2.482,0,4.5,2.019,4.5,4.5    v67.063c0,4.142,3.357,7.5,7.5,7.5c4.142,0,7.5-3.358,7.499-7.5v-67.063C511.999,163.795,503.25,155.046,492.498,155.046z" fill="#FFFFFF"/>
	</g>
</g>
<g>
	<g>
		<path d="M504.5,269.112c-4.143,0-7.5,3.358-7.5,7.5v60.839c0,2.482-2.018,4.5-4.5,4.5H19.501c-2.481,0-4.5-2.018-4.5-4.5V174.548    c0-2.481,2.019-4.5,4.5-4.5h218.997c4.142,0,7.5-3.358,7.5-7.5c0-4.142-3.358-7.5-7.5-7.5H19.501    C8.749,155.046,0,163.795,0,174.548v162.905c0,10.754,8.749,19.501,19.501,19.501h472.998c10.753,0,19.501-8.749,19.501-19.502    v-60.839C512,272.471,508.643,269.112,504.5,269.112z" fill="#FFFFFF"/>
	</g>
</g>
<g>
</g>
<g>
</g>
<g>
</g>
<g>
</g>
<g>
</g>
<g>
</g>
<g>
</g>
<g>
</g>
<g>
</g>
<g>
</g>
<g>
</g>
<g>
</g>
<g>
</g>
<g>
</g>
<g>
</g>
</svg>
