<?xml version="1.0" encoding="iso-8859-1"?>
<!-- Generator: Adobe Illustrator 19.0.0, SVG Export Plug-In . SVG Version: 6.00 Build 0)  -->
<svg xmlns="http://www.w3.org/2000/svg" xmlns:xlink="http://www.w3.org/1999/xlink" version="1.1" id="Capa_1" x="0px" y="0px" viewBox="0 0 60 60" style="enable-background:new 0 0 60 60;" xml:space="preserve" width="512px" height="512px">
<g>
	<path d="M18,24c0.256,0,0.512-0.098,0.707-0.293l4-4c0.391-0.391,0.391-1.023,0-1.414s-1.023-0.391-1.414,0l-4,4   c-0.391,0.391-0.391,1.023,0,1.414C17.488,23.902,17.744,24,18,24z" fill="#FFFFFF"/>
	<path d="M19.293,25.293l-2,2c-0.391,0.391-0.391,1.023,0,1.414C17.488,28.902,17.744,29,18,29s0.512-0.098,0.707-0.293l2-2   c0.391-0.391,0.391-1.023,0-1.414S19.684,24.902,19.293,25.293z" fill="#FFFFFF"/>
	<path d="M21.29,23.29C21.109,23.479,21,23.729,21,24c0,0.27,0.109,0.52,0.29,0.71C21.479,24.89,21.729,25,22,25   c0.26,0,0.52-0.11,0.71-0.29C22.89,24.52,23,24.26,23,24s-0.11-0.521-0.29-0.71C22.33,22.92,21.67,22.92,21.29,23.29z" fill="#FFFFFF"/>
	<path d="M26.293,18.293l-3,3c-0.391,0.391-0.391,1.023,0,1.414C23.488,22.902,23.744,23,24,23s0.512-0.098,0.707-0.293l3-3   c0.391-0.391,0.391-1.023,0-1.414S26.684,17.902,26.293,18.293z" fill="#FFFFFF"/>
	<g>
		<path d="M53.66,14.407c-0.02-0.006-0.039-0.013-0.059-0.019c-0.229-0.073-0.465-0.136-0.711-0.188    c-0.047-0.01-0.093-0.022-0.14-0.031c-0.223-0.044-0.453-0.078-0.69-0.104c-0.058-0.007-0.115-0.017-0.173-0.022    C51.601,14.016,51.307,14,51,14h-4h-0.081H13h-0.081H9c-0.34,0-0.662,0.022-0.977,0.054c-0.08,0.008-0.157,0.02-0.236,0.03    c-0.261,0.034-0.513,0.078-0.756,0.133c-0.054,0.012-0.108,0.023-0.161,0.036c-0.636,0.158-1.212,0.388-1.735,0.678    c-0.014,0.008-0.028,0.015-0.042,0.023C0.005,17.815,0,26.382,0,30c0,2.767,0.003,8.431,2.279,12.223l0.049,0.091    c0.024,0.04,0.053,0.072,0.077,0.111c0.159,0.252,0.326,0.497,0.507,0.73c0.012,0.015,0.024,0.03,0.036,0.045    c0.18,0.227,0.374,0.44,0.576,0.645c0.044,0.044,0.087,0.088,0.131,0.131c0.213,0.205,0.435,0.401,0.673,0.58h0    c0.231,0.174,0.478,0.33,0.735,0.475c0.045,0.025,0.089,0.051,0.134,0.075c0.505,0.272,1.058,0.489,1.666,0.641    c0.066,0.017,0.134,0.03,0.201,0.045c0.232,0.051,0.471,0.093,0.719,0.125c0.082,0.011,0.164,0.023,0.248,0.032    C8.343,45.979,8.663,46,9,46h3.919H13h33.919H47h4c0.305,0,0.598-0.016,0.882-0.042c0.062-0.006,0.122-0.016,0.183-0.023    c0.23-0.026,0.454-0.058,0.671-0.1c0.055-0.011,0.108-0.024,0.162-0.036c0.229-0.05,0.452-0.108,0.667-0.175    c0.036-0.011,0.072-0.023,0.108-0.035c0.25-0.083,0.492-0.176,0.723-0.282c0.002-0.001,0.003-0.001,0.005-0.002    c0.775-0.355,1.443-0.833,2.018-1.405c0.014-0.014,0.029-0.029,0.043-0.043c0.193-0.195,0.378-0.398,0.55-0.613    c0.003-0.004,0.006-0.006,0.009-0.01l0.002-0.003C59.998,39.513,60,33.025,60,30C60,26.108,59.994,16.487,53.66,14.407z M8,24    c-0.553,0-1-0.447-1-1v-1c0-0.553,0.447-1,1-1s1,0.447,1,1v1C9,23.553,8.553,24,8,24z M9,27v1c0,0.553-0.447,1-1,1s-1-0.447-1-1    v-1c0-0.553,0.447-1,1-1S9,26.447,9,27z M4.595,17.96c0.068-0.083,0.141-0.158,0.212-0.235c0.099-0.108,0.201-0.212,0.306-0.309    c0.072-0.067,0.145-0.133,0.22-0.195c0.13-0.107,0.264-0.206,0.401-0.299c0.055-0.037,0.107-0.079,0.164-0.114    c0.195-0.121,0.399-0.227,0.61-0.32c0.06-0.026,0.122-0.047,0.183-0.071c0.164-0.065,0.333-0.124,0.507-0.173    c0.074-0.021,0.15-0.041,0.226-0.06c0.185-0.044,0.374-0.08,0.569-0.107c0.06-0.009,0.117-0.02,0.178-0.027    c0.24-0.027,0.488-0.04,0.743-0.043L7.419,18H4.566C4.576,17.988,4.585,17.973,4.595,17.96z M5,24h1c0.553,0,1,0.447,1,1    s-0.447,1-1,1H5c-0.553,0-1-0.447-1-1S4.447,24,5,24z M8.168,43.952c-0.055-0.006-0.107-0.017-0.161-0.024    c-0.205-0.029-0.405-0.066-0.599-0.113c-0.065-0.016-0.128-0.033-0.191-0.05c-0.199-0.056-0.393-0.122-0.58-0.198    c-0.036-0.015-0.073-0.027-0.108-0.042c-0.23-0.1-0.451-0.215-0.663-0.348c-0.004-0.002-0.007-0.005-0.011-0.008    c-0.201-0.127-0.393-0.273-0.577-0.43c-0.034-0.029-0.066-0.059-0.1-0.088c-0.167-0.15-0.328-0.311-0.481-0.486    c-0.018-0.021-0.038-0.041-0.056-0.062C4.615,42.07,4.592,42.032,4.566,42h2.853l1.496,1.995    C8.659,43.992,8.409,43.979,8.168,43.952z M8,39c-2.206,0-4-1.794-4-4s1.794-4,4-4s4,1.794,4,4S10.206,39,8,39z M11,26h-1    c-0.553,0-1-0.447-1-1s0.447-1,1-1h1c0.553,0,1,0.447,1,1S11.553,26,11,26z M45,44H15V16h30V44z M51,16    c0.275,0,0.539,0.018,0.797,0.046c0.076,0.008,0.149,0.021,0.223,0.032c0.184,0.027,0.365,0.06,0.54,0.102    c0.076,0.018,0.151,0.036,0.225,0.057c0.185,0.052,0.363,0.114,0.537,0.184c0.05,0.02,0.103,0.036,0.152,0.057    c0.211,0.092,0.413,0.2,0.608,0.319c0.073,0.045,0.141,0.097,0.212,0.146c0.119,0.081,0.235,0.167,0.347,0.259    c0.087,0.072,0.173,0.147,0.256,0.225c0.087,0.082,0.172,0.169,0.255,0.258c0.087,0.093,0.176,0.183,0.259,0.284    c0.007,0.009,0.013,0.019,0.021,0.028c0,0.001,0.001,0.002,0.001,0.003h-3.015l-1.5-2H51z M52.71,22.71    C52.52,22.89,52.27,23,52,23c-0.271,0-0.521-0.11-0.71-0.29C51.109,22.52,51,22.26,51,22s0.109-0.521,0.29-0.71    c0.38-0.37,1.04-0.37,1.42,0C52.89,21.479,53,21.74,53,22S52.89,22.52,52.71,22.71z M53,28c0,0.26-0.11,0.52-0.29,0.71    C52.52,28.899,52.26,29,52,29s-0.521-0.11-0.71-0.29C51.109,28.52,51,28.26,51,28s0.109-0.521,0.29-0.71    c0.37-0.37,1.04-0.37,1.42,0C52.89,27.479,53,27.74,53,28z M48.29,24.29c0.38-0.37,1.04-0.37,1.42,0C49.89,24.479,50,24.74,50,25    s-0.11,0.52-0.29,0.71C49.52,25.89,49.27,26,49,26c-0.271,0-0.521-0.11-0.71-0.29C48.109,25.52,48,25.26,48,25    S48.109,24.479,48.29,24.29z M55.36,42.1c-0.025,0.03-0.052,0.056-0.078,0.085c-0.144,0.163-0.294,0.314-0.449,0.454    c-0.046,0.041-0.092,0.081-0.138,0.12c-0.157,0.132-0.32,0.254-0.489,0.364c-0.033,0.022-0.064,0.046-0.098,0.067    c-0.21,0.13-0.428,0.246-0.656,0.345c-0.014,0.006-0.028,0.01-0.042,0.016c-0.206,0.087-0.421,0.159-0.642,0.22    c-0.062,0.017-0.126,0.032-0.19,0.048c-0.184,0.044-0.374,0.08-0.568,0.107c-0.07,0.01-0.138,0.022-0.209,0.029    C51.541,43.982,51.276,44,51,44h-0.081l1.5-2h3.015C55.409,42.031,55.386,42.069,55.36,42.1z M52,39c-2.206,0-4-1.794-4-4    s1.794-4,4-4s4,1.794,4,4S54.206,39,52,39z M55.71,25.71C55.52,25.89,55.27,26,55,26c-0.271,0-0.53-0.11-0.71-0.29    C54.109,25.52,54,25.26,54,25s0.109-0.521,0.29-0.71c0.37-0.37,1.04-0.37,1.42,0C55.89,24.479,56,24.74,56,25    S55.89,25.52,55.71,25.71z" fill="#FFFFFF"/>
		<circle cx="8" cy="35" r="2" fill="#FFFFFF"/>
		<circle cx="52" cy="35" r="2" fill="#FFFFFF"/>
	</g>
</g>
<g>
</g>
<g>
</g>
<g>
</g>
<g>
</g>
<g>
</g>
<g>
</g>
<g>
</g>
<g>
</g>
<g>
</g>
<g>
</g>
<g>
</g>
<g>
</g>
<g>
</g>
<g>
</g>
<g>
</g>
</svg>
