<?xml version="1.0" encoding="iso-8859-1"?>
<!-- Generator: Adobe Illustrator 19.0.0, SVG Export Plug-In . SVG Version: 6.00 Build 0)  -->
<svg xmlns="http://www.w3.org/2000/svg" xmlns:xlink="http://www.w3.org/1999/xlink" version="1.1" id="Capa_1" x="0px" y="0px" viewBox="0 0 480 480" style="enable-background:new 0 0 480 480;" xml:space="preserve" width="512px" height="512px">
<g>
	<g>
		<g>
			<path d="M360,112H120C53.757,112.075,0.075,165.757,0,232v16c0.075,66.243,53.757,119.925,120,120h240     c66.243-0.075,119.925-53.757,120-120v-16C479.925,165.757,426.243,112.075,360,112z M464,248     c-0.066,57.41-46.59,103.934-104,104H120c-57.41-0.066-103.934-46.59-104-104v-16c0.066-57.41,46.59-103.934,104-104h240     c57.41,0.066,103.934,46.59,104,104V248z" fill="#FFFFFF"/>
			<path d="M360,144H120c-4.418,0-8,3.582-8,8v176c0,4.418,3.582,8,8,8h240c4.418,0,8-3.582,8-8V152     C368,147.582,364.418,144,360,144z M352,320H128V160h224V320z" fill="#FFFFFF"/>
			<path d="M96,232H72v-24c0-4.418-3.582-8-8-8s-8,3.582-8,8v24H32c-4.418,0-8,3.582-8,8s3.582,8,8,8h24v24c0,4.418,3.582,8,8,8     s8-3.582,8-8v-24h24c4.418,0,8-3.582,8-8S100.418,232,96,232z" fill="#FFFFFF"/>
			<path d="M400,208h-16c-4.418,0-8,3.582-8,8s3.582,8,8,8h16c4.418,0,8-3.582,8-8S404.418,208,400,208z" fill="#FFFFFF"/>
			<path d="M416,216c0,4.418,3.582,8,8,8h16c4.418,0,8-3.582,8-8s-3.582-8-8-8h-16C419.582,208,416,211.582,416,216z" fill="#FFFFFF"/>
			<path d="M400,256h-16c-4.418,0-8,3.582-8,8s3.582,8,8,8h16c4.418,0,8-3.582,8-8S404.418,256,400,256z" fill="#FFFFFF"/>
			<path d="M440,256h-16c-4.418,0-8,3.582-8,8s3.582,8,8,8h16c4.418,0,8-3.582,8-8S444.418,256,440,256z" fill="#FFFFFF"/>
		</g>
	</g>
</g>
<g>
</g>
<g>
</g>
<g>
</g>
<g>
</g>
<g>
</g>
<g>
</g>
<g>
</g>
<g>
</g>
<g>
</g>
<g>
</g>
<g>
</g>
<g>
</g>
<g>
</g>
<g>
</g>
<g>
</g>
</svg>
