<?xml version="1.0" encoding="iso-8859-1"?>
<!-- Generator: Adobe Illustrator 19.0.0, SVG Export Plug-In . SVG Version: 6.00 Build 0)  -->
<svg xmlns="http://www.w3.org/2000/svg" xmlns:xlink="http://www.w3.org/1999/xlink" version="1.1" id="Capa_1" x="0px" y="0px" viewBox="0 0 60 60" style="enable-background:new 0 0 60 60;" xml:space="preserve" width="512px" height="512px">
<g>
	<g>
		<path d="M18,24c0.256,0,0.512-0.098,0.707-0.293l4-4c0.391-0.391,0.391-1.023,0-1.414s-1.023-0.391-1.414,0l-4,4    c-0.391,0.391-0.391,1.023,0,1.414C17.488,23.902,17.744,24,18,24z" fill="#FFFFFF"/>
		<path d="M19.293,25.293l-2,2c-0.391,0.391-0.391,1.023,0,1.414C17.488,28.902,17.744,29,18,29s0.512-0.098,0.707-0.293l2-2    c0.391-0.391,0.391-1.023,0-1.414S19.684,24.902,19.293,25.293z" fill="#FFFFFF"/>
		<path d="M21.29,23.29C21.109,23.479,21,23.729,21,24c0,0.27,0.109,0.52,0.29,0.71C21.479,24.89,21.729,25,22,25    c0.26,0,0.52-0.11,0.71-0.29C22.89,24.52,23,24.26,23,24s-0.11-0.521-0.29-0.71C22.33,22.92,21.67,22.92,21.29,23.29z" fill="#FFFFFF"/>
		<path d="M26.293,18.293l-3,3c-0.391,0.391-0.391,1.023,0,1.414C23.488,22.902,23.744,23,24,23s0.512-0.098,0.707-0.293l3-3    c0.391-0.391,0.391-1.023,0-1.414S26.684,17.902,26.293,18.293z" fill="#FFFFFF"/>
		<path d="M8,31c-2.206,0-4,1.794-4,4s1.794,4,4,4s4-1.794,4-4S10.206,31,8,31z M8,37c-1.103,0-2-0.897-2-2s0.897-2,2-2s2,0.897,2,2    S9.103,37,8,37z" fill="#FFFFFF"/>
		<path d="M52,31c-2.206,0-4,1.794-4,4s1.794,4,4,4s4-1.794,4-4S54.206,31,52,31z M52,37c-1.103,0-2-0.897-2-2s0.897-2,2-2    s2,0.897,2,2S53.103,37,52,37z" fill="#FFFFFF"/>
		<path d="M57.024,43.231C59.998,39.513,60,33.025,60,30c0-3.892-0.006-13.513-6.34-15.593c-0.02-0.006-0.039-0.013-0.059-0.019    c-0.229-0.073-0.465-0.136-0.711-0.188c-0.047-0.01-0.093-0.022-0.14-0.031c-0.223-0.044-0.453-0.078-0.69-0.104    c-0.058-0.007-0.115-0.017-0.173-0.022C51.601,14.016,51.307,14,51,14h-4h-0.081H13h-0.081H9c-0.34,0-0.662,0.022-0.977,0.054    c-0.08,0.008-0.157,0.02-0.236,0.03c-0.261,0.034-0.513,0.078-0.756,0.133c-0.054,0.012-0.108,0.023-0.161,0.036    c-0.636,0.158-1.212,0.388-1.735,0.678c-0.014,0.008-0.028,0.015-0.042,0.023C0.005,17.815,0,26.382,0,30    c0,2.767,0.003,8.431,2.279,12.223l0.049,0.091c0.024,0.04,0.053,0.072,0.077,0.111c0.159,0.252,0.326,0.497,0.507,0.73    c0.012,0.015,0.024,0.03,0.036,0.045c0.18,0.227,0.374,0.44,0.576,0.645c0.044,0.044,0.087,0.088,0.131,0.131    c0.213,0.205,0.435,0.401,0.673,0.58l0,0c0.231,0.174,0.478,0.33,0.735,0.475c0.045,0.025,0.089,0.051,0.134,0.075    c0.505,0.272,1.058,0.489,1.666,0.641c0.066,0.017,0.134,0.03,0.201,0.045c0.232,0.051,0.471,0.093,0.719,0.125    c0.082,0.011,0.164,0.023,0.248,0.032C8.343,45.979,8.663,46,9,46h3.919H13h33.919H47h4c0.305,0,0.598-0.016,0.882-0.042    c0.062-0.006,0.122-0.016,0.183-0.023c0.23-0.026,0.454-0.058,0.671-0.1c0.055-0.011,0.108-0.024,0.162-0.036    c0.229-0.05,0.452-0.108,0.667-0.175c0.036-0.011,0.072-0.023,0.108-0.035c0.25-0.083,0.492-0.176,0.723-0.282    c0.002-0.001,0.003-0.001,0.005-0.002c0.775-0.355,1.443-0.833,2.018-1.405c0.014-0.014,0.029-0.029,0.043-0.043    c0.193-0.195,0.378-0.398,0.55-0.613c0.003-0.004,0.006-0.006,0.009-0.01L57.024,43.231z M58,30c0,4.424-0.457,7.716-1.408,10    h-5.173l-3,4H47V16h1.419l3,4h5.173C57.543,22.284,58,25.576,58,30z M51,16c0.275,0,0.539,0.018,0.797,0.046    c0.076,0.008,0.149,0.021,0.223,0.032c0.184,0.027,0.365,0.06,0.54,0.102c0.076,0.018,0.151,0.036,0.225,0.057    c0.185,0.052,0.363,0.114,0.537,0.184c0.05,0.02,0.103,0.036,0.152,0.057c0.211,0.092,0.413,0.2,0.608,0.319    c0.073,0.045,0.141,0.097,0.212,0.146c0.119,0.081,0.235,0.167,0.347,0.259c0.087,0.072,0.173,0.147,0.256,0.225    c0.087,0.082,0.172,0.169,0.255,0.258c0.087,0.093,0.176,0.183,0.259,0.284c0.007,0.009,0.013,0.019,0.021,0.028    c0,0.001,0.001,0.002,0.001,0.003h-3.015l-1.5-2C50.918,16,51,16,51,16z M4.595,17.96c0.068-0.083,0.141-0.158,0.212-0.235    c0.099-0.108,0.201-0.212,0.306-0.309c0.072-0.067,0.145-0.133,0.22-0.195c0.13-0.107,0.264-0.206,0.401-0.299    c0.055-0.037,0.107-0.079,0.164-0.114c0.195-0.121,0.399-0.227,0.61-0.32c0.06-0.026,0.122-0.047,0.183-0.071    c0.164-0.065,0.333-0.124,0.507-0.173c0.074-0.021,0.15-0.041,0.226-0.06c0.185-0.044,0.374-0.08,0.569-0.107    c0.06-0.009,0.117-0.02,0.178-0.027c0.24-0.027,0.488-0.04,0.743-0.043L7.419,18H4.566C4.576,17.988,4.585,17.973,4.595,17.96z     M8.168,43.952c-0.055-0.006-0.107-0.017-0.161-0.024c-0.205-0.029-0.405-0.066-0.599-0.113c-0.065-0.016-0.128-0.033-0.191-0.05    c-0.199-0.056-0.393-0.122-0.58-0.198c-0.036-0.015-0.073-0.027-0.108-0.042c-0.23-0.1-0.451-0.215-0.663-0.348    c-0.004-0.002-0.007-0.005-0.011-0.008c-0.201-0.127-0.393-0.273-0.577-0.43c-0.034-0.029-0.066-0.059-0.1-0.088    c-0.167-0.15-0.328-0.311-0.481-0.486c-0.018-0.021-0.038-0.041-0.056-0.062C4.615,42.07,4.592,42.032,4.566,42h2.853l1.496,1.995    C8.659,43.992,8.409,43.979,8.168,43.952z M11.419,44l-3-4H3.408C2.457,37.716,2,34.424,2,30s0.457-7.716,1.408-10h5.011l3-4H13    v28H11.419z M15,44V16h30v28H15z M50.919,44l1.5-2h3.015c-0.026,0.031-0.048,0.069-0.074,0.1c-0.025,0.03-0.052,0.056-0.078,0.085    c-0.144,0.163-0.294,0.314-0.449,0.454c-0.046,0.041-0.092,0.081-0.138,0.12c-0.157,0.132-0.32,0.254-0.489,0.364    c-0.033,0.022-0.064,0.046-0.098,0.067c-0.21,0.13-0.428,0.246-0.656,0.345c-0.014,0.006-0.028,0.01-0.042,0.016    c-0.206,0.087-0.421,0.159-0.642,0.22c-0.062,0.017-0.126,0.032-0.19,0.048c-0.184,0.044-0.374,0.08-0.568,0.107    c-0.07,0.01-0.138,0.022-0.209,0.029C51.541,43.982,51.276,44,51,44H50.919z" fill="#FFFFFF"/>
		<path d="M8,24c0.553,0,1-0.447,1-1v-1c0-0.553-0.447-1-1-1s-1,0.447-1,1v1C7,23.553,7.447,24,8,24z" fill="#FFFFFF"/>
		<path d="M10,26h1c0.553,0,1-0.447,1-1s-0.447-1-1-1h-1c-0.553,0-1,0.447-1,1S9.447,26,10,26z" fill="#FFFFFF"/>
		<path d="M5,26h1c0.553,0,1-0.447,1-1s-0.447-1-1-1H5c-0.553,0-1,0.447-1,1S4.447,26,5,26z" fill="#FFFFFF"/>
		<path d="M8,26c-0.553,0-1,0.447-1,1v1c0,0.553,0.447,1,1,1s1-0.447,1-1v-1C9,26.447,8.553,26,8,26z" fill="#FFFFFF"/>
		<path d="M51,22c0,0.26,0.109,0.52,0.29,0.71C51.479,22.89,51.729,23,52,23c0.27,0,0.52-0.11,0.71-0.29C52.89,22.52,53,22.26,53,22    s-0.11-0.521-0.29-0.71c-0.38-0.37-1.04-0.37-1.42,0C51.109,21.479,51,21.74,51,22z" fill="#FFFFFF"/>
		<path d="M52.71,28.71C52.89,28.52,53,28.26,53,28s-0.11-0.521-0.29-0.71c-0.38-0.37-1.05-0.37-1.42,0    C51.109,27.479,51,27.74,51,28s0.109,0.52,0.29,0.71C51.479,28.89,51.74,29,52,29S52.52,28.899,52.71,28.71z" fill="#FFFFFF"/>
		<path d="M49,26c0.27,0,0.52-0.11,0.71-0.29C49.89,25.52,50,25.26,50,25s-0.11-0.521-0.29-0.71c-0.38-0.37-1.04-0.37-1.42,0    C48.109,24.479,48,24.74,48,25s0.109,0.52,0.29,0.71C48.479,25.89,48.729,26,49,26z" fill="#FFFFFF"/>
		<path d="M55,26c0.27,0,0.52-0.11,0.71-0.29C55.89,25.52,56,25.26,56,25s-0.11-0.521-0.29-0.71c-0.38-0.37-1.05-0.37-1.42,0    C54.109,24.479,54,24.74,54,25s0.109,0.52,0.29,0.71C54.47,25.89,54.729,26,55,26z" fill="#FFFFFF"/>
	</g>
</g>
<g>
</g>
<g>
</g>
<g>
</g>
<g>
</g>
<g>
</g>
<g>
</g>
<g>
</g>
<g>
</g>
<g>
</g>
<g>
</g>
<g>
</g>
<g>
</g>
<g>
</g>
<g>
</g>
<g>
</g>
</svg>
