<?xml version="1.0" encoding="iso-8859-1"?>
<!-- Generator: Adobe Illustrator 19.0.0, SVG Export Plug-In . SVG Version: 6.00 Build 0)  -->
<svg xmlns="http://www.w3.org/2000/svg" xmlns:xlink="http://www.w3.org/1999/xlink" version="1.1" id="Capa_1" x="0px" y="0px" viewBox="0 0 60 60" style="enable-background:new 0 0 60 60;" xml:space="preserve" width="512px" height="512px">
<g>
	<circle cx="36" cy="43.5" r="1.5" fill="#FFFFFF"/>
	<circle cx="42" cy="37.5" r="1.5" fill="#FFFFFF"/>
	<path d="M48.207,28.707C48.395,28.52,48.5,28.266,48.5,28V4.731C48.5,2.122,46.378,0,43.769,0H16.231   C13.622,0,11.5,2.122,11.5,4.731V28c0,0.266,0.105,0.52,0.293,0.707l1.311,1.311C13.365,30.28,13.51,30.629,13.51,31   s-0.145,0.72-0.407,0.982l-1.311,1.311C11.605,33.48,11.5,33.734,11.5,34v20.635c0,2.958,2.407,5.365,5.365,5.365h26.271   c2.958,0,5.365-2.407,5.365-5.365V34c0-0.266-0.105-0.52-0.293-0.707l-1.253-1.254c-0.08-0.08-0.143-0.164-0.197-0.248   c-0.037-0.057-0.067-0.117-0.095-0.178c-0.009-0.019-0.021-0.039-0.029-0.058c-0.061-0.151-0.093-0.312-0.101-0.478   c0.002-0.031-0.006-0.061-0.006-0.092c0.004-0.387,0.155-0.75,0.429-1.025L48.207,28.707z M24.5,47.285   C24.5,48.23,23.731,49,22.785,49h-2.571c-0.945,0-1.714-0.77-1.714-1.715V45h-2.286c-0.945,0-1.714-0.77-1.714-1.715v-2.57   C14.5,39.77,15.269,39,16.214,39H18.5v-2.285C18.5,35.77,19.269,35,20.214,35h2.571c0.945,0,1.714,0.77,1.714,1.715V39h2.286   c0.945,0,1.714,0.77,1.714,1.715v2.57C28.5,44.23,27.731,45,26.785,45H24.5V47.285z M31.5,36h-3c-0.552,0-1-0.447-1-1s0.448-1,1-1   h3c0.552,0,1,0.447,1,1S32.052,36,31.5,36z M32.5,49c0,0.26-0.11,0.52-0.29,0.71C32.02,49.89,31.76,50,31.5,50   c-0.27,0-0.52-0.11-0.71-0.29c-0.18-0.19-0.29-0.44-0.29-0.71c0-0.26,0.11-0.521,0.29-0.71c0.37-0.37,1.04-0.37,1.42,0   C32.389,48.479,32.5,48.74,32.5,49z M28.5,49c0,0.27-0.11,0.52-0.29,0.71C28.02,49.89,27.77,50,27.5,50   c-0.26,0-0.52-0.11-0.71-0.29c-0.18-0.19-0.29-0.45-0.29-0.71s0.11-0.521,0.29-0.71c0.38-0.37,1.05-0.37,1.42,0   C28.389,48.479,28.5,48.74,28.5,49z M25.5,52c0-0.26,0.11-0.521,0.29-0.71c0.38-0.37,1.05-0.37,1.42,0   c0.18,0.189,0.29,0.45,0.29,0.71c0,0.27-0.11,0.52-0.29,0.71C27.02,52.89,26.77,53,26.5,53c-0.26,0-0.52-0.11-0.71-0.29   C25.61,52.52,25.5,52.26,25.5,52z M28.21,55.71C28.02,55.89,27.76,56,27.5,56c-0.26,0-0.52-0.11-0.71-0.29   c-0.18-0.19-0.29-0.45-0.29-0.71s0.11-0.521,0.29-0.71c0.38-0.37,1.04-0.37,1.42,0c0.18,0.189,0.29,0.45,0.29,0.71   S28.389,55.52,28.21,55.71z M29.5,53c-0.27,0-0.52-0.11-0.71-0.29c-0.18-0.19-0.29-0.44-0.29-0.71c0-0.26,0.11-0.521,0.29-0.71   c0.37-0.37,1.04-0.37,1.42,0c0.18,0.189,0.29,0.45,0.29,0.71s-0.11,0.52-0.29,0.71C30.02,52.89,29.76,53,29.5,53z M32.21,55.71   C32.02,55.89,31.77,56,31.5,56c-0.26,0-0.52-0.11-0.71-0.29c-0.18-0.19-0.29-0.44-0.29-0.71c0-0.271,0.1-0.521,0.29-0.71   c0.37-0.37,1.05-0.37,1.42,0c0.19,0.189,0.29,0.439,0.29,0.71C32.5,55.27,32.389,55.52,32.21,55.71z M33.21,52.71   C33.02,52.89,32.76,53,32.5,53c-0.26,0-0.52-0.11-0.71-0.29c-0.18-0.19-0.29-0.45-0.29-0.71s0.11-0.521,0.29-0.71   c0.38-0.37,1.04-0.37,1.42,0c0.18,0.189,0.29,0.45,0.29,0.71S33.389,52.52,33.21,52.71z M36,47c-1.93,0-3.5-1.57-3.5-3.5   S34.07,40,36,40s3.5,1.57,3.5,3.5S37.929,47,36,47z M42,41c-1.93,0-3.5-1.57-3.5-3.5S40.07,34,42,34s3.5,1.57,3.5,3.5   S43.929,41,42,41z M46.5,27.586l-0.96,0.96c-0.411,0.411-0.691,0.913-0.854,1.454H15.344c-0.161-0.52-0.431-1.001-0.827-1.396   L13.5,27.586V4.731C13.5,3.226,14.725,2,16.231,2h27.538C45.275,2,46.5,3.226,46.5,4.731V27.586z" fill="#FFFFFF"/>
	<polygon points="22.5,37 20.5,37 20.5,41 16.5,41 16.5,43 20.5,43 20.5,47 22.5,47 22.5,43 26.5,43 26.5,41 22.5,41  " fill="#FFFFFF"/>
	<path d="M42.5,5h-25c-0.552,0-1,0.447-1,1v20c0,0.553,0.448,1,1,1h25c0.552,0,1-0.447,1-1V6C43.5,5.447,43.052,5,42.5,5z    M20.793,13.293l4-4c0.391-0.391,1.023-0.391,1.414,0s0.391,1.023,0,1.414l-4,4C22.011,14.902,21.756,15,21.5,15   s-0.512-0.098-0.707-0.293C20.402,14.316,20.402,13.684,20.793,13.293z M24.207,17.707l-2,2C22.011,19.902,21.756,20,21.5,20   s-0.512-0.098-0.707-0.293c-0.391-0.391-0.391-1.023,0-1.414l2-2c0.391-0.391,1.023-0.391,1.414,0S24.597,17.316,24.207,17.707z    M26.21,15.71C26.02,15.89,25.76,16,25.5,16c-0.26,0-0.52-0.11-0.71-0.29c-0.18-0.19-0.29-0.45-0.29-0.71   c0-0.271,0.11-0.521,0.29-0.71c0.37-0.37,1.05-0.37,1.42,0c0.18,0.189,0.29,0.45,0.29,0.71S26.389,15.52,26.21,15.71z    M31.207,10.707l-3,3C28.011,13.902,27.756,14,27.5,14s-0.512-0.098-0.707-0.293c-0.391-0.391-0.391-1.023,0-1.414l3-3   c0.391-0.391,1.023-0.391,1.414,0S31.597,10.316,31.207,10.707z" fill="#FFFFFF"/>
</g>
<g>
</g>
<g>
</g>
<g>
</g>
<g>
</g>
<g>
</g>
<g>
</g>
<g>
</g>
<g>
</g>
<g>
</g>
<g>
</g>
<g>
</g>
<g>
</g>
<g>
</g>
<g>
</g>
<g>
</g>
</svg>
