<?xml version="1.0" encoding="iso-8859-1"?>
<!-- Generator: Adobe Illustrator 19.0.0, SVG Export Plug-In . SVG Version: 6.00 Build 0)  -->
<svg xmlns="http://www.w3.org/2000/svg" xmlns:xlink="http://www.w3.org/1999/xlink" version="1.1" id="Capa_1" x="0px" y="0px" viewBox="0 0 512 512" style="enable-background:new 0 0 512 512;" xml:space="preserve" width="512px" height="512px">
<g>
	<g>
		<path d="M410.122,62.831V0H101.878v62.831l41.796,52.245v203.482l-41.796,52.245v62.83H128V512h256v-78.367h26.122v-62.831    l-41.796-52.245V115.076L410.122,62.831z M117.551,15.673h276.898v36.571H117.551V15.673z M368.327,496.327H143.673v-62.694    h224.653V496.327z M394.449,417.959H117.551v-36.571h276.898V417.959z M385.981,365.714H126.02l29.257-36.571h45.866v18.286    h15.673v-18.286h139.908L385.981,365.714z M216.816,301.672c9.121-3.235,15.673-11.945,15.673-22.162    c0-12.964-10.547-23.51-23.51-23.51s-23.51,10.546-23.51,23.51c0,10.216,6.553,18.927,15.673,22.162v11.797h-41.796V120.163    h193.306v193.306H216.816V301.672z M208.98,287.347c-4.322,0-7.837-3.515-7.837-7.837c0-4.322,3.515-7.837,7.837-7.837    c4.322,0,7.837,3.515,7.837,7.837C216.816,283.832,213.301,287.347,208.98,287.347z M356.724,104.49H155.277L126.02,67.918    h259.961L356.724,104.49z" fill="#FFFFFF"/>
	</g>
</g>
<g>
	<g>
		<polygon points="169.796,130.612 169.796,260.681 185.469,260.681 185.469,146.286 326.531,146.286 326.531,287.347     242.019,287.347 242.019,303.02 342.204,303.02 342.204,130.612   " fill="#FFFFFF"/>
	</g>
</g>
<g>
	<g>
		<rect x="259.135" y="339.592" width="15.673" height="15.673" fill="#FFFFFF"/>
	</g>
</g>
<g>
	<g>
		<rect x="290.482" y="339.592" width="15.673" height="15.673" fill="#FFFFFF"/>
	</g>
</g>
<g>
	<g>
		<rect x="321.829" y="339.592" width="15.673" height="15.673" fill="#FFFFFF"/>
	</g>
</g>
<g>
	<g>
		<rect x="216.816" y="208.98" width="15.673" height="15.673" fill="#FFFFFF"/>
	</g>
</g>
<g>
	<g>
		<rect x="248.163" y="208.98" width="15.673" height="15.673" fill="#FFFFFF"/>
	</g>
</g>
<g>
	<g>
		<rect x="279.51" y="208.98" width="15.673" height="15.673" fill="#FFFFFF"/>
	</g>
</g>
<g>
	<g>
		<rect x="248.163" y="240.327" width="15.673" height="15.673" fill="#FFFFFF"/>
	</g>
</g>
<g>
	<g>
		<rect x="216.816" y="177.633" width="15.673" height="15.673" fill="#FFFFFF"/>
	</g>
</g>
<g>
	<g>
		<rect x="248.163" y="177.633" width="15.673" height="15.673" fill="#FFFFFF"/>
	</g>
</g>
<g>
	<g>
		<rect x="279.51" y="177.633" width="15.673" height="15.673" fill="#FFFFFF"/>
	</g>
</g>
<g>
	<g>
		<rect x="203.755" y="26.122" width="104.49" height="15.674" fill="#FFFFFF"/>
	</g>
</g>
<g>
</g>
<g>
</g>
<g>
</g>
<g>
</g>
<g>
</g>
<g>
</g>
<g>
</g>
<g>
</g>
<g>
</g>
<g>
</g>
<g>
</g>
<g>
</g>
<g>
</g>
<g>
</g>
<g>
</g>
</svg>
