<?xml version="1.0" encoding="iso-8859-1"?>
<!-- Generator: Adobe Illustrator 19.0.0, SVG Export Plug-In . SVG Version: 6.00 Build 0)  -->
<svg xmlns="http://www.w3.org/2000/svg" xmlns:xlink="http://www.w3.org/1999/xlink" version="1.1" id="Capa_1" x="0px" y="0px" viewBox="0 0 480 480" style="enable-background:new 0 0 480 480;" xml:space="preserve" width="512px" height="512px">
<g>
	<g>
		<g>
			<path d="M344,288c-13.255,0-24,10.745-24,24s10.745,24,24,24s24-10.745,24-24S357.255,288,344,288z M344,320     c-4.418,0-8-3.582-8-8s3.582-8,8-8s8,3.582,8,8S348.418,320,344,320z" fill="#FFFFFF"/>
			<path d="M304,328c-13.255,0-24,10.745-24,24s10.745,24,24,24s24-10.745,24-24S317.255,328,304,328z M304,360     c-4.418,0-8-3.582-8-8s3.582-8,8-8s8,3.582,8,8S308.418,360,304,360z" fill="#FFFFFF"/>
			<path d="M376,0H104C90.745,0,80,10.745,80,24v432c0,13.255,10.745,24,24,24h208c48.577-0.057,87.943-39.423,88-88V24     C400,10.745,389.255,0,376,0z M384,392c-0.016,8.307-1.481,16.548-4.328,24.352l-14.016-14.008     c-3.178-3.07-8.242-2.982-11.312,0.196c-2.995,3.1-2.995,8.016,0,11.116l16,16c0.613,0.566,1.313,1.03,2.072,1.376     c-1.312,2.027-2.717,3.979-4.216,5.856l-18.544-18.544c-3.178-3.07-8.242-2.982-11.312,0.196c-2.995,3.1-2.995,8.016,0,11.116     l18.544,18.544c-1.877,1.504-3.829,2.909-5.856,4.216c-0.346-0.759-0.81-1.459-1.376-2.072l-16-16     c-3.178-3.07-8.242-2.982-11.312,0.196c-2.995,3.1-2.995,8.016,0,11.116l14.008,14.016c-7.804,2.847-16.045,4.312-24.352,4.328     H104c-4.418,0-8-3.582-8-8V24c0-4.418,3.582-8,8-8h272c4.418,0,8,3.582,8,8V392z" fill="#FFFFFF"/>
			<path d="M360,32H120c-4.418,0-8,3.582-8,8v208c0,4.418,3.582,8,8,8h240c4.418,0,8-3.582,8-8V40C368,35.582,364.418,32,360,32z      M352,240H128V48h224V240z" fill="#FFFFFF"/>
			<path d="M224,360v-32c0-4.418-3.582-8-8-8h-24v-24c0-4.418-3.582-8-8-8h-32c-4.418,0-8,3.582-8,8v24h-24c-4.418,0-8,3.582-8,8v32     c0,4.418,3.582,8,8,8h24v24c0,4.418,3.582,8,8,8h32c4.418,0,8-3.582,8-8v-24h24C220.418,368,224,364.418,224,360z M208,352h-24     c-4.418,0-8,3.582-8,8v24h-16v-24c0-4.418-3.582-8-8-8h-24v-16h24c4.418,0,8-3.582,8-8v-24h16v24c0,4.418,3.582,8,8,8h24V352z" fill="#FFFFFF"/>
			<path d="M224,404.688L212.688,416c-3.178,3.069-3.266,8.134-0.196,11.312c3.069,3.178,8.134,3.266,11.312,0.196     c0.067-0.064,0.132-0.13,0.196-0.196L235.312,416c3.07-3.178,2.982-8.242-0.196-11.312     C232.015,401.694,227.1,401.694,224,404.688z" fill="#FFFFFF"/>
			<path d="M256,404.688L244.688,416c-3.178,3.07-3.266,8.134-0.196,11.312c3.07,3.178,8.134,3.266,11.312,0.196     c0.066-0.064,0.132-0.13,0.196-0.196L267.312,416c3.07-3.178,2.982-8.242-0.196-11.312     C264.016,401.693,259.1,401.693,256,404.688z" fill="#FFFFFF"/>
		</g>
	</g>
</g>
<g>
</g>
<g>
</g>
<g>
</g>
<g>
</g>
<g>
</g>
<g>
</g>
<g>
</g>
<g>
</g>
<g>
</g>
<g>
</g>
<g>
</g>
<g>
</g>
<g>
</g>
<g>
</g>
<g>
</g>
</svg>
