<?xml version="1.0" encoding="iso-8859-1"?>
<!-- Generator: Adobe Illustrator 19.0.0, SVG Export Plug-In . SVG Version: 6.00 Build 0)  -->
<svg xmlns="http://www.w3.org/2000/svg" xmlns:xlink="http://www.w3.org/1999/xlink" version="1.1" id="Capa_1" x="0px" y="0px" viewBox="0 0 60 60" style="enable-background:new 0 0 60 60;" xml:space="preserve" width="512px" height="512px">
<g>
	<g>
		<path d="M42,34c-1.93,0-3.5,1.57-3.5,3.5S40.069,41,42,41s3.5-1.57,3.5-3.5S43.929,34,42,34z M42,39c-0.827,0-1.5-0.673-1.5-1.5    S41.173,36,42,36s1.5,0.673,1.5,1.5S42.826,39,42,39z" fill="#FFFFFF"/>
		<path d="M36,40c-1.93,0-3.5,1.57-3.5,3.5S34.069,47,36,47s3.5-1.57,3.5-3.5S37.929,40,36,40z M36,45c-0.827,0-1.5-0.673-1.5-1.5    S35.173,42,36,42s1.5,0.673,1.5,1.5S36.826,45,36,45z" fill="#FFFFFF"/>
		<path d="M46.632,31.555c-0.061-0.151-0.093-0.312-0.101-0.478c0.002-0.031-0.006-0.061-0.006-0.092    c0.004-0.387,0.155-0.75,0.429-1.025l1.253-1.253C48.395,28.52,48.5,28.266,48.5,28V4.731C48.5,2.122,46.377,0,43.769,0H16.231    C13.622,0,11.5,2.122,11.5,4.731V28c0,0.266,0.105,0.52,0.293,0.707l1.311,1.311C13.365,30.28,13.51,30.629,13.51,31    s-0.145,0.72-0.407,0.982l-1.311,1.311C11.604,33.48,11.5,33.734,11.5,34v20.635c0,2.958,2.407,5.365,5.365,5.365h26.271    c2.958,0,5.365-2.407,5.365-5.365V34c0-0.266-0.105-0.52-0.293-0.707l-1.253-1.254c-0.08-0.08-0.143-0.164-0.197-0.248    c-0.037-0.057-0.067-0.117-0.095-0.178C46.652,31.594,46.639,31.574,46.632,31.555z M13.5,27.586V4.731    C13.5,3.226,14.725,2,16.231,2h27.538C45.275,2,46.5,3.226,46.5,4.731v22.854l-0.96,0.96c-0.411,0.411-0.691,0.913-0.854,1.454    H15.344c-0.161-0.52-0.431-1.001-0.827-1.396L13.5,27.586z M46.5,54.635C46.5,56.49,44.99,58,43.134,58h-26.27    c-1.855,0-3.365-1.51-3.365-3.365V34.414l1.018-1.018c0.184-0.184,0.337-0.389,0.471-0.605c0.043-0.068,0.073-0.138,0.111-0.208    c0.076-0.143,0.145-0.288,0.2-0.441c0.018-0.049,0.05-0.094,0.065-0.143h29.299c0.016,0.051,0.048,0.098,0.066,0.148    c0.058,0.165,0.131,0.323,0.213,0.477c0.036,0.067,0.066,0.133,0.106,0.198c0.14,0.224,0.298,0.438,0.489,0.63l0.96,0.961v20.222    H46.5z" fill="#FFFFFF"/>
		<path d="M17.5,27h25c0.552,0,1-0.447,1-1V6c0-0.553-0.448-1-1-1h-25c-0.552,0-1,0.447-1,1v20C16.5,26.553,16.948,27,17.5,27z     M18.5,7h23v18h-23V7z" fill="#FFFFFF"/>
		<path d="M27.209,52.71c0.18-0.19,0.29-0.44,0.29-0.71c0-0.26-0.11-0.521-0.29-0.71c-0.37-0.37-1.04-0.37-1.42,0    c-0.18,0.189-0.29,0.45-0.29,0.71s0.11,0.52,0.29,0.71c0.19,0.18,0.45,0.29,0.71,0.29C26.77,53,27.02,52.89,27.209,52.71z" fill="#FFFFFF"/>
		<path d="M30.209,51.29c-0.38-0.37-1.05-0.37-1.42,0c-0.18,0.189-0.29,0.45-0.29,0.71c0,0.27,0.11,0.52,0.29,0.71    c0.19,0.18,0.44,0.29,0.71,0.29c0.26,0,0.52-0.11,0.71-0.29c0.18-0.19,0.29-0.45,0.29-0.71S30.389,51.479,30.209,51.29z" fill="#FFFFFF"/>
		<path d="M31.79,51.29c-0.18,0.189-0.29,0.45-0.29,0.71s0.11,0.52,0.29,0.71c0.19,0.18,0.45,0.29,0.71,0.29s0.52-0.11,0.71-0.29    c0.18-0.19,0.29-0.45,0.29-0.71s-0.11-0.521-0.29-0.71C32.828,50.92,32.169,50.92,31.79,51.29z" fill="#FFFFFF"/>
		<path d="M30.79,54.29C30.6,54.479,30.5,54.729,30.5,55c0,0.27,0.11,0.52,0.29,0.71c0.19,0.18,0.45,0.29,0.71,0.29    c0.27,0,0.52-0.11,0.71-0.29c0.18-0.19,0.29-0.44,0.29-0.71c0-0.271-0.1-0.521-0.29-0.71C31.84,53.92,31.159,53.92,30.79,54.29z" fill="#FFFFFF"/>
		<path d="M26.79,54.29c-0.18,0.189-0.29,0.45-0.29,0.71s0.11,0.52,0.29,0.71c0.19,0.18,0.45,0.29,0.71,0.29s0.52-0.11,0.71-0.29    c0.18-0.19,0.29-0.45,0.29-0.71s-0.11-0.521-0.29-0.71C27.829,53.92,27.17,53.92,26.79,54.29z" fill="#FFFFFF"/>
		<path d="M30.79,48.29c-0.18,0.189-0.29,0.45-0.29,0.71c0,0.27,0.11,0.52,0.29,0.71c0.19,0.18,0.44,0.29,0.71,0.29    c0.26,0,0.52-0.11,0.71-0.29c0.18-0.19,0.29-0.45,0.29-0.71s-0.11-0.521-0.29-0.71C31.829,47.92,31.159,47.92,30.79,48.29z" fill="#FFFFFF"/>
		<path d="M26.79,48.29c-0.18,0.189-0.29,0.45-0.29,0.71s0.11,0.52,0.29,0.71c0.19,0.18,0.45,0.29,0.71,0.29    c0.27,0,0.52-0.11,0.71-0.29c0.18-0.19,0.29-0.44,0.29-0.71c0-0.26-0.11-0.521-0.29-0.71C27.84,47.92,27.17,47.92,26.79,48.29z" fill="#FFFFFF"/>
		<path d="M28.5,36h3c0.552,0,1-0.447,1-1s-0.448-1-1-1h-3c-0.552,0-1,0.447-1,1S27.948,36,28.5,36z" fill="#FFFFFF"/>
		<path d="M21.5,15c0.256,0,0.512-0.098,0.707-0.293l4-4c0.391-0.391,0.391-1.023,0-1.414s-1.023-0.391-1.414,0l-4,4    c-0.391,0.391-0.391,1.023,0,1.414C20.988,14.902,21.243,15,21.5,15z" fill="#FFFFFF"/>
		<path d="M22.792,16.293l-2,2c-0.391,0.391-0.391,1.023,0,1.414C20.988,19.902,21.243,20,21.5,20s0.512-0.098,0.707-0.293l2-2    c0.391-0.391,0.391-1.023,0-1.414S23.183,15.902,22.792,16.293z" fill="#FFFFFF"/>
		<path d="M24.79,14.29c-0.18,0.189-0.29,0.439-0.29,0.71c0,0.26,0.11,0.52,0.29,0.71c0.19,0.18,0.45,0.29,0.71,0.29    s0.52-0.11,0.71-0.29c0.18-0.19,0.29-0.45,0.29-0.71s-0.11-0.521-0.29-0.71C25.84,13.92,25.159,13.92,24.79,14.29z" fill="#FFFFFF"/>
		<path d="M29.792,9.293l-3,3c-0.391,0.391-0.391,1.023,0,1.414C26.988,13.902,27.243,14,27.5,14s0.512-0.098,0.707-0.293l3-3    c0.391-0.391,0.391-1.023,0-1.414S30.183,8.902,29.792,9.293z" fill="#FFFFFF"/>
		<path d="M28.5,43.285v-2.57C28.5,39.77,27.731,39,26.785,39H24.5v-2.285C24.5,35.77,23.731,35,22.785,35h-2.571    c-0.945,0-1.714,0.77-1.714,1.715V39h-2.286c-0.945,0-1.714,0.77-1.714,1.715v2.57C14.5,44.23,15.269,45,16.214,45H18.5v2.285    C18.5,48.23,19.268,49,20.214,49h2.571c0.945,0,1.714-0.77,1.714-1.715V45h2.286C27.731,45,28.5,44.23,28.5,43.285z M26.5,43h-4v4    h-2v-4h-4v-2h4v-4h2v4h4V43z" fill="#FFFFFF"/>
	</g>
</g>
<g>
</g>
<g>
</g>
<g>
</g>
<g>
</g>
<g>
</g>
<g>
</g>
<g>
</g>
<g>
</g>
<g>
</g>
<g>
</g>
<g>
</g>
<g>
</g>
<g>
</g>
<g>
</g>
<g>
</g>
</svg>
