<?xml version="1.0" encoding="iso-8859-1"?>
<!-- Generator: Adobe Illustrator 19.0.0, SVG Export Plug-In . SVG Version: 6.00 Build 0)  -->
<svg xmlns="http://www.w3.org/2000/svg" xmlns:xlink="http://www.w3.org/1999/xlink" version="1.1" id="Capa_1" x="0px" y="0px" viewBox="0 0 512 512" style="enable-background:new 0 0 512 512;" xml:space="preserve" width="512px" height="512px">
<g>
	<g>
		<path d="M390.178,248.013h-8.066c-5.514,0-9.985,4.47-9.985,9.985s4.471,9.985,9.985,9.985h8.066    c56.161,0,101.851,45.69,101.851,101.851s-45.69,101.851-101.851,101.851c-37.975,0-72.549-20.909-90.227-54.57    c-1.726-3.285-5.13-5.342-8.841-5.342h-70.221c-3.711,0-7.115,2.058-8.841,5.342c-17.678,33.66-52.251,54.57-90.227,54.57    c-56.161,0-101.851-45.69-101.851-101.851s45.69-101.851,101.851-101.851h95.365h71.895h20.969c5.514,0,9.985-4.47,9.985-9.985    s-4.471-9.985-9.985-9.985h-11.387c-2.4-18.325-15.634-33.278-33.048-38.204v-52.924c0-15.278-12.429-27.707-27.706-27.707    h-36.453c-4.265,0-7.736-3.471-7.736-7.737V69.932c0-5.515-4.471-9.985-9.985-9.985s-9.985,4.47-9.985,9.985v51.511    c0,15.278,12.429,27.707,27.706,27.707h36.453c4.265,0,7.736,3.471,7.736,7.737v51.807c-19.834,3.267-35.416,19.281-38.04,39.321    h-85.783C54.649,248.015,0,302.664,0,369.836s54.649,121.822,121.822,121.822c43.375,0,83.036-22.806,104.931-59.912h58.494    c21.895,37.107,61.557,59.912,104.931,59.912c67.173,0,121.822-54.649,121.822-121.822S457.351,248.013,390.178,248.013z     M253.134,228.042c12.254,0,22.553,8.534,25.265,19.971h-50.53C230.581,236.576,240.879,228.042,253.134,228.042z" fill="#FFFFFF"/>
	</g>
</g>
<g>
	<g>
		<path d="M351.559,250.934c-1.856-1.857-4.432-2.916-7.059-2.916s-5.202,1.058-7.06,2.916c-1.857,1.867-2.926,4.433-2.926,7.07    c0,2.626,1.067,5.192,2.926,7.05c1.857,1.867,4.434,2.936,7.06,2.936s5.202-1.068,7.059-2.936c1.857-1.857,2.927-4.424,2.927-7.05    C354.486,255.368,353.417,252.802,351.559,250.934z" fill="#FFFFFF"/>
	</g>
</g>
<g>
	<g>
		<path d="M157.774,340.005h-5.991v-5.991c0-16.518-13.438-29.956-29.956-29.956c-16.518,0-29.956,13.438-29.956,29.956v5.991    h-5.991c-16.518,0-29.956,13.438-29.956,29.956c0,16.518,13.438,29.956,29.956,29.956h5.991v5.991    c0,16.518,13.438,29.956,29.956,29.956s29.956-13.438,29.956-29.956v-5.991h5.991c16.518,0,29.956-13.438,29.956-29.956    C187.73,353.443,174.292,340.005,157.774,340.005z M157.774,379.946h-15.977c-5.514,0-9.985,4.47-9.985,9.985v15.977    c0,5.506-4.479,9.985-9.985,9.985s-9.985-4.479-9.985-9.985v-15.977c0-5.515-4.471-9.985-9.985-9.985H85.879    c-5.506,0-9.985-4.479-9.985-9.985c0-5.506,4.479-9.985,9.985-9.985h15.977c5.514,0,9.985-4.47,9.985-9.985v-15.977    c0-5.506,4.479-9.985,9.985-9.985s9.985,4.479,9.985,9.985v15.977c0,5.515,4.471,9.985,9.985,9.985h15.977    c5.506,0,9.985,4.479,9.985,9.985C167.759,375.467,163.28,379.946,157.774,379.946z" fill="#FFFFFF"/>
	</g>
</g>
<g>
	<g>
		<path d="M388.437,295.043c-16.518,0-29.956,13.438-29.956,29.956s13.438,29.956,29.956,29.956s29.956-13.438,29.956-29.956    S404.955,295.043,388.437,295.043z M388.437,334.984c-5.506,0-9.985-4.479-9.985-9.985s4.479-9.985,9.985-9.985    s9.985,4.479,9.985,9.985S393.943,334.984,388.437,334.984z" fill="#FFFFFF"/>
	</g>
</g>
<g>
	<g>
		<path d="M388.437,384.967c-16.518,0-29.956,13.438-29.956,29.956c0,16.518,13.438,29.956,29.956,29.956    s29.956-13.438,29.956-29.956C418.393,398.405,404.955,384.967,388.437,384.967z M388.437,424.909    c-5.506,0-9.985-4.479-9.985-9.985c0-5.506,4.479-9.985,9.985-9.985s9.985,4.479,9.985,9.985    C398.422,420.429,393.943,424.909,388.437,424.909z" fill="#FFFFFF"/>
	</g>
</g>
<g>
	<g>
		<path d="M433.399,340.005c-16.518,0-29.956,13.438-29.956,29.956c0,16.518,13.438,29.956,29.956,29.956    c16.518,0,29.956-13.438,29.956-29.956C463.355,353.443,449.917,340.005,433.399,340.005z M433.399,379.946    c-5.506,0-9.985-4.479-9.985-9.985c0-5.506,4.479-9.985,9.985-9.985c5.506,0,9.985,4.479,9.985,9.985    C443.385,375.467,438.905,379.946,433.399,379.946z" fill="#FFFFFF"/>
	</g>
</g>
<g>
	<g>
		<path d="M343.475,340.005c-16.518,0-29.956,13.438-29.956,29.956c0,16.518,13.438,29.956,29.956,29.956    c16.518,0,29.956-13.438,29.956-29.956C373.431,353.443,359.993,340.005,343.475,340.005z M343.475,379.946    c-5.506,0-9.985-4.479-9.985-9.985c0-5.506,4.479-9.985,9.985-9.985s9.985,4.479,9.985,9.985    C353.46,375.467,348.981,379.946,343.475,379.946z" fill="#FFFFFF"/>
	</g>
</g>
<g>
	<g>
		<path d="M190.794,23.268c-1.856-1.867-4.432-2.926-7.059-2.926s-5.202,1.058-7.06,2.926c-1.857,1.857-2.926,4.424-2.926,7.06    c0,2.626,1.067,5.192,2.926,7.06c1.857,1.856,4.433,2.926,7.06,2.926s5.202-1.068,7.059-2.926c1.857-1.867,2.927-4.434,2.927-7.06    C193.721,27.691,192.653,25.125,190.794,23.268z" fill="#FFFFFF"/>
	</g>
</g>
<g>
</g>
<g>
</g>
<g>
</g>
<g>
</g>
<g>
</g>
<g>
</g>
<g>
</g>
<g>
</g>
<g>
</g>
<g>
</g>
<g>
</g>
<g>
</g>
<g>
</g>
<g>
</g>
<g>
</g>
</svg>
