<svg height='451' width='451'  fill="#000000" xmlns:dc="http://purl.org/dc/elements/1.1/" xmlns:cc="http://creativecommons.org/ns#" xmlns:rdf="http://www.w3.org/1999/02/22-rdf-syntax-ns#" xmlns:svg="http://www.w3.org/2000/svg" xmlns="http://www.w3.org/2000/svg" xmlns:sodipodi="http://sodipodi.sourceforge.net/DTD/sodipodi-0.dtd" xmlns:inkscape="http://www.inkscape.org/namespaces/inkscape" version="1.1" x="0px" y="0px" viewBox="0 0 100 100"><g transform="translate(0,-952.36218)"><path style="text-indent:0;text-transform:none;direction:ltr;block-progression:tb;baseline-shift:baseline;color:#000000;enable-background:accumulate;" d="m 6,973.36217 c -1.65685,0 -3,1.3432 -3,3 l 0,46.00003 c 0,1.6569 1.34315,3 3,3 1.65685,0 3,-1.3431 3,-3 l 0,-43.00003 81,0 c 1.65685,0 3,-1.3431 3,-3 0,-1.6568 -1.34315,-3 -3,-3 l -84,0 z m 7.6875,8 c -1.46278,0.1534 -2.69536,1.5282 -2.6875,3 l 0,44.00003 c 1.6e-4,1.5708 1.43039,2.9998 3,3 l 80,0 c 1.56961,-2e-4 2.99984,-1.4292 3,-3 l 0,-44.00003 c -1.6e-4,-1.5707 -1.43039,-2.9998 -3,-3 l -80.3125,0 z m 3.3125,6 17.84375,0 C 29.99954,992.25157 27,998.95597 27,1006.3622 c 0,7.3905 2.98639,14.1132 7.8125,19 l -17.8125,0 0,-38.00003 z m 28.0625,0 17.875,0 C 70.05249,990.71877 75,997.93977 75,1006.3622 c 0,8.4224 -4.94751,15.6434 -12.0625,19 l -17.875,0 C 37.94751,1022.0056 33,1014.7846 33,1006.3622 c 0,-8.42243 4.94751,-15.64343 12.0625,-19.00003 z m 28.09375,0 17.84375,0 0,38.00003 -17.8125,0 c 4.82611,-4.8868 7.8125,-11.6095 7.8125,-19 0,-7.40623 -2.99954,-14.11063 -7.84375,-19.00003 z m -28.46875,4 c -1.571,0.082 -2.6875,1.4269 -2.6875,3 0,2 1.429,3.0821 3,3 l 1,0 0,8.00003 -1,0 c -1.5849,-0.022 -3,1.4149 -3,3 0,2 1.4151,3.0225 3,3 l 1,0 0,2 -1,0 c -1.6568,0 -3,1.3432 -3,3 0,1.6569 1.3432,3 3,3 l 1,0 0,1 c -0.022,1.585 1.4149,3 3,3 1.5851,0 3.0224,-1.415 3,-3 l 0,-1 7,0 c 1.6569,0 3,-1.3431 3,-3 0,-1.6568 -1.3431,-3 -3,-3 l -7,0 0,-2 6,0 c 5.392,0 10,-4.4243 10,-10 0,-5.57563 -4.608,-10.00003 -10,-10.00003 l -13.3125,0 z m 7.3125,6 6,0 c 2.0244,0 4,1.8197 4,4.00003 0,2.1804 -1.9756,4 -4,4 l -6,0 0,-8.00003 z" fill="#000000" fill-opacity="1" stroke="none" marker="none" visibility="visible" display="inline" overflow="visible"></path></g></svg>