<?xml version="1.0" encoding="iso-8859-1"?>
<!-- Generator: Adobe Illustrator 19.0.0, SVG Export Plug-In . SVG Version: 6.00 Build 0)  -->
<svg xmlns="http://www.w3.org/2000/svg" xmlns:xlink="http://www.w3.org/1999/xlink" version="1.1" id="Capa_1" x="0px" y="0px" viewBox="0 0 438.146 438.146" style="enable-background:new 0 0 438.146 438.146;" xml:space="preserve" width="512px" height="512px">
<g>
	<g>
		<g>
			<path d="M14.8,233.873c8,0,14.8-6.4,14.8-14.8c0-51.6,20.8-98,54.8-132c33.6-33.6,80.4-54.8,132-54.8c38,0,74,11.6,104,31.6     c20,13.6,37.2,30.8,50.8,51.2l-16.8-6.4c-7.6-2.8-16,0.8-18.8,8.4c-2.8,7.6,0.8,16,8.4,18.8l52.8,20.8c3.6,1.6,7.6,1.6,11.2,0     c4-1.6,6.8-4.8,8.4-8.8l20.8-52.8c2.8-7.6-0.8-16-8.4-18.8c-7.6-2.8-16,0.8-18.8,8.4l-8.8,22.8c-16.4-27.2-38.4-50-64.4-67.2     c-34.8-23.6-76.4-36.8-120.4-36.8c-59.6,0-113.6,24-152.4,63.2c-39.6,38.8-64,92.8-64,152.4C0,227.073,6.8,233.873,14.8,233.873z     " fill="#FFFFFF"/>
			<path d="M422.8,204.273c-8,0-14.8,6.4-14.8,14.8c0,51.6-20.8,98-54.8,132c-33.6,33.6-80.4,54.8-132,54.8c-38,0-74-11.6-104-31.6     c-20-13.6-37.2-30.8-50.8-51.2l16.8,6.8c7.6,2.8,16-0.8,18.8-8.4c2.8-7.6-0.8-16-8.4-18.8l-52.8-20.8c-3.6-1.6-7.6-1.6-11.2,0     c-4,1.6-6.8,4.8-8.4,8.8l-20,52.4c-2.8,7.6,0.8,16,8.4,18.8c7.6,2.8,16-0.8,18.8-8.4l8.8-22.8c16.4,27.2,38.4,50,64.4,67.2     c34.8,23.6,76.4,36.8,120.4,36.8c59.6,0,113.6-24,152.4-63.2c39.2-39.2,63.2-92.8,63.2-152.4     C437.6,211.073,430.8,204.273,422.8,204.273z" fill="#FFFFFF"/>
			<path d="M126,312.673h186c0-38.4-31.2-69.6-69.6-69.6h-47.2C157.2,243.073,126,274.273,126,312.673z" fill="#FFFFFF"/>
			<circle cx="218.8" cy="173.873" r="48.4" fill="#FFFFFF"/>
		</g>
	</g>
</g>
<g>
</g>
<g>
</g>
<g>
</g>
<g>
</g>
<g>
</g>
<g>
</g>
<g>
</g>
<g>
</g>
<g>
</g>
<g>
</g>
<g>
</g>
<g>
</g>
<g>
</g>
<g>
</g>
<g>
</g>
</svg>
