<?xml version="1.0" encoding="iso-8859-1"?>
<!-- Generator: Adobe Illustrator 16.0.0, SVG Export Plug-In . SVG Version: 6.00 Build 0)  -->
<!DOCTYPE svg PUBLIC "-//W3C//DTD SVG 1.1//EN" "http://www.w3.org/Graphics/SVG/1.1/DTD/svg11.dtd">
<svg xmlns="http://www.w3.org/2000/svg" xmlns:xlink="http://www.w3.org/1999/xlink" version="1.1" id="Capa_1" x="0px" y="0px" width="512px" height="512px" viewBox="0 0 574.675 574.675" style="enable-background:new 0 0 574.675 574.675;" xml:space="preserve">
<g>
	<g>
		<path d="M561.921,361.215c3.593-1.071,9.902-4.082,9.902-12.259c0-11.285,2.791-36.83,2.846-61.157h0.006c0-0.134,0-0.263,0-0.397    s0-0.263,0-0.398h-0.006c-0.055-24.327-2.846-49.872-2.846-61.157c0-10.239-9.878-12.423-11.922-12.766    c2.711,10.147,5.227,32.124,5.227,80.735C565.128,329.672,563.745,349.801,561.921,361.215z" fill="#FFFFFF"/>
		<path d="M2.877,352.28c2.558,6.946,9.296,8.819,12.289,9.321c-1.854-11.341-3.268-31.519-3.268-67.779    c0-3.084,0.012-6.028,0.03-8.898c-0.349-0.539-0.575-1.151-0.539-1.806l0.765-13.972c0.704-31.818,2.778-47.896,4.981-56.114    c-0.288-0.013-0.477-0.019-0.477-0.019S6.2,213.491,2.877,222.518c-3.176,8.611-2.889,60.086-2.852,64.878    C-0.018,292.194-0.299,343.669,2.877,352.28z" fill="#FFFFFF"/>
		<path d="M347.477,352.757c44.174-0.869,183.777,7.338,208.251,8.807c1.615-9.565,3.28-28.838,3.28-67.742    c0-53.893-3.226-73.422-5.361-80.454c-29.333,1.75-163.098,9.529-206.17,8.684c-44.034-0.863-280.927-7.607-324.061-8.837    c-1.297,4.198-3.017,13.035-4.162,31.53h281.717c4.834,0,8.77,3.935,8.77,8.764v24.082c0,4.835-3.936,8.764-8.77,8.764H18.036    c-0.012,2.418-0.024,4.902-0.024,7.473c0,39.033,1.677,58.306,3.292,67.834C58.061,360.603,302.659,353.632,347.477,352.757z     M68.092,233.858h-10.3v-2.509h10.3V233.858z M57.792,229.562l5.147-8.274l5.147,8.274H57.792z M427.55,313.455    c0-4.26,3.654-7.724,8.146-7.724h96.83c4.492,0,8.152,3.464,8.152,7.724v17.718c0,4.259-3.66,7.723-8.152,7.723h-96.83    c-4.492,0-8.146-3.464-8.146-7.723V313.455L427.55,313.455z M372.507,249.25c20.82,0,37.761,16.94,37.761,37.754    c0,20.82-16.94,37.76-37.761,37.76s-37.76-16.94-37.76-37.76C334.747,266.184,351.687,249.25,372.507,249.25z" fill="#FFFFFF"/>
		<circle cx="372.507" cy="287.004" r="6.812" fill="#FFFFFF"/>
		<path d="M303.614,277.585v-24.083c0-1.457-1.188-2.644-2.65-2.644H19.278l-1.01,18.409c-0.08,3.458-0.141,7.093-0.184,10.961    h282.879C302.427,280.223,303.614,279.036,303.614,277.585z" fill="#FFFFFF"/>
		<rect x="454.974" y="310.407" width="15.649" height="23.807" fill="#FFFFFF"/>
		<path d="M435.696,334.213h14.596v-23.807h-14.596c-1.91,0-3.464,1.365-3.464,3.048v17.718    C432.232,332.849,433.786,334.213,435.696,334.213z" fill="#FFFFFF"/>
		<path d="M536.003,331.172v-17.718c0-1.677-1.561-3.048-3.47-3.048h-57.241v23.807h57.241    C534.442,334.213,536.003,332.849,536.003,331.172z" fill="#FFFFFF"/>
	</g>
</g>
<g>
</g>
<g>
</g>
<g>
</g>
<g>
</g>
<g>
</g>
<g>
</g>
<g>
</g>
<g>
</g>
<g>
</g>
<g>
</g>
<g>
</g>
<g>
</g>
<g>
</g>
<g>
</g>
<g>
</g>
</svg>
