<svg xmlns="http://www.w3.org/2000/svg" xmlns:xlink="http://www.w3.org/1999/xlink" version="1.1" x="0px" y="0px" viewBox="0 0 59 48.5" enable-background="new 0 0 59 48.5" xml:space="preserve">
        <defs>
		<style type="text/css"><![CDATA[
			path {
				fill: #fff;
			}
			polygon {
			    fill: #fff;
			}
			circle {
			    fill: #fff;
			}
			rect {
			    fill: #fff;
			}
		]]></style>
	</defs>
    <g><path d="M58.15,24.98c-0.08-0.24-0.21-0.46-0.41-0.61l-8.9-8.2c-0.25-0.2-0.57-0.31-0.89-0.31h-1.07   C46.3,10.89,43.5,5.15,42.25,2.79c-0.25-0.48-0.68-0.85-1.19-1.04l-4.45-1.62c-0.68-0.25-1.46-0.15-2.07,0.25l-0.59,0.39   c-0.07,0.05-0.15,0.07-0.24,0.07h-9.14c-0.08,0-0.17-0.02-0.23-0.07l-0.59-0.39c-0.6-0.4-1.38-0.5-2.07-0.25l-4.45,1.62   c-0.52,0.19-0.94,0.56-1.19,1.03c-1.25,2.36-4.05,8.1-4.64,13.07h-0.15c-0.32,0-0.64,0.11-0.93,0.35l-9.01,8.11   c-0.22,0.18-0.37,0.4-0.45,0.65C0.34,25.38,0,26.01,0,26.71v19.56c0,1.22,1,2.22,2.22,2.22h54.56c1.22,0,2.22-1,2.22-2.22V26.71   C59,26.01,58.67,25.39,58.15,24.98z M2.19,26.85H27v1.64H2v-1.67C2.07,26.83,2.13,26.85,2.19,26.85z M2,30.5h25v12H2V30.5z    M29,30.5h28v12H29V30.5z M29,28.5v-1.64h27.81c0.07,0,0.13-0.02,0.19-0.03v1.67H29z M17.81,3.73c0.02-0.04,0.06-0.07,0.11-0.09   l4.45-1.62c0.09-0.03,0.19-0.02,0.27,0.03l0.59,0.4c0.4,0.27,0.86,0.41,1.34,0.41h9.14c0.48,0,0.94-0.14,1.34-0.41l0.59-0.4   c0.08-0.05,0.18-0.06,0.27-0.03l4.45,1.62c0.05,0.02,0.09,0.05,0.11,0.09c1.99,3.76,4.44,9.61,4.51,13.72c0,0.02,0,0.04,0,0.06   c0.01,0.68-0.06,1.31-0.2,1.88c-0.03,0.11-0.06,0.21-0.09,0.31c-0.04,0.13-0.09,0.25-0.14,0.37c-0.29,0.67-0.72,1.19-1.3,1.54   l-5.31-4.52c-0.22-0.19-0.46-0.36-0.71-0.51c-0.79-0.47-1.7-0.73-2.63-0.73H23.67c-0.05,0-0.09,0.01-0.14,0.01h-0.02   c-0.02,0-0.04,0.01-0.06,0.01c-0.27,0.01-0.54,0.04-0.81,0.09c-0.01,0-0.02,0.01-0.04,0.01c-0.27,0.06-0.53,0.13-0.79,0.23   c-0.05,0.02-0.09,0.04-0.13,0.06c-0.22,0.09-0.44,0.19-0.64,0.31c-0.25,0.15-0.49,0.32-0.71,0.51l-5.37,4.55   c-0.22-0.14-0.4-0.31-0.58-0.49c-0.04-0.04-0.08-0.09-0.12-0.13c-0.16-0.19-0.3-0.4-0.42-0.62c-0.01-0.02-0.02-0.05-0.03-0.07   c-0.11-0.22-0.19-0.45-0.27-0.7c-0.02-0.06-0.03-0.12-0.05-0.18c-0.15-0.58-0.21-1.22-0.2-1.93c0-0.03,0-0.05,0-0.08   C13.38,13.32,15.82,7.48,17.81,3.73z M11.3,18.02c0,0.05,0.01,0.09,0.01,0.14c0.01,0.19,0.02,0.37,0.04,0.56   c0.01,0.09,0.02,0.18,0.03,0.27c0.03,0.25,0.07,0.49,0.12,0.73c0.02,0.07,0.04,0.14,0.06,0.21c0.04,0.17,0.09,0.34,0.14,0.5   c0.03,0.09,0.06,0.17,0.1,0.26c0.05,0.14,0.11,0.27,0.17,0.4c0.04,0.08,0.08,0.17,0.12,0.25c0.06,0.12,0.14,0.25,0.21,0.36   c0.05,0.07,0.09,0.15,0.14,0.22c0.08,0.12,0.17,0.23,0.26,0.34c0.05,0.06,0.1,0.13,0.15,0.19c0.11,0.12,0.22,0.23,0.34,0.33   c0.05,0.04,0.09,0.09,0.15,0.14c0.17,0.15,0.36,0.28,0.56,0.41c0.74,0.47,1.77,0.39,2.45-0.19l5.29-4.53   c0.14-0.12,0.28-0.22,0.43-0.31c0.12-0.07,0.24-0.13,0.37-0.18c0.03-0.01,0.07-0.03,0.1-0.05c0.15-0.06,0.3-0.1,0.45-0.13   c0.02,0,0.03-0.01,0.05-0.01c0.17-0.03,0.34-0.05,0.51-0.06l11.17,0c0.54,0.02,1.06,0.17,1.51,0.43c0.15,0.09,0.3,0.19,0.43,0.31   l5.29,4.53c0.38,0.33,0.86,0.5,1.36,0.5c0.15,0,0.29-0.03,0.42-0.06c0.03-0.01,0.05,0,0.08-0.01c0.21-0.05,0.4-0.13,0.58-0.24   c0.2-0.13,0.39-0.27,0.56-0.41c0.06-0.05,0.11-0.1,0.16-0.15c0.11-0.1,0.23-0.21,0.33-0.32c0.06-0.06,0.11-0.13,0.17-0.2   c0.09-0.11,0.18-0.22,0.25-0.33c0.05-0.08,0.1-0.16,0.15-0.24c0.07-0.12,0.14-0.24,0.2-0.36c0.04-0.09,0.09-0.17,0.13-0.26   c0.06-0.13,0.11-0.27,0.17-0.41c0.03-0.09,0.07-0.17,0.09-0.26c0.07-0.22,0.13-0.45,0.18-0.68c0.02-0.08,0.03-0.17,0.05-0.26   c0.03-0.17,0.06-0.34,0.08-0.51c0.01-0.11,0.02-0.22,0.03-0.33c0.02-0.18,0.03-0.36,0.03-0.54c0-0.06,0.01-0.12,0.01-0.19h0.73   l7.2,6.63H4.1L11.3,18.02z M2.22,46.5C2.1,46.5,2,46.4,2,46.28V44.5h25v2H2.22z M56.78,46.5H29v-2h28v1.78   C57,46.4,56.9,46.5,56.78,46.5z"></path><rect x="5" y="35.5" width="15" height="2"></rect><rect x="22" y="35.5" width="2" height="2"></rect><path d="M50,32.5c-2.21,0-4,1.79-4,4s1.79,4,4,4s4-1.79,4-4S52.21,32.5,50,32.5z M50,38.5c-1.1,0-2-0.9-2-2s0.9-2,2-2s2,0.9,2,2   S51.1,38.5,50,38.5z"></path><path d="M35.5,14.5c1.93,0,3.5-1.57,3.5-3.5s-1.57-3.5-3.5-3.5S32,9.07,32,11S33.57,14.5,35.5,14.5z M35.5,9.5   c0.83,0,1.5,0.67,1.5,1.5s-0.67,1.5-1.5,1.5S34,11.82,34,11S34.67,9.5,35.5,9.5z"></path><path d="M20.5,10.5c1.93,0,3.5-1.57,3.5-3.5s-1.57-3.5-3.5-3.5S17,5.07,17,7S18.57,10.5,20.5,10.5z M20.5,5.5   C21.33,5.5,22,6.17,22,7s-0.67,1.5-1.5,1.5S19,7.82,19,7S19.67,5.5,20.5,5.5z"></path><polygon points="24,11.5 22,11.5 22,13.5 24,13.5 24,15.5 26,15.5 26,13.5 28,13.5 28,11.5 26,11.5 26,9.5 24,9.5  "></polygon><rect x="32" y="4.5" width="2" height="2"></rect><rect x="36" y="3.5" width="2" height="2"></rect></g></svg>